<svg xmlns="http://www.w3.org/2000/svg" xmlns:xlink="http://www.w3.org/1999/xlink" x="0px" y="0px" width="2058px" height="2058px" viewBox="0 0 2058 2058" xml:space="preserve"><g id="BG" display="none">	<rect id="BOX" display="inline" fill="#071A2B" width="2059.313" height="2059.313"></rect></g><g id="GRID" display="none">	<g id="_x32_058_grid" display="inline">		<rect fill="none" stroke="#2E3190" stroke-width="2" stroke-miterlimit="10" width="2059.313" height="2059.313"></rect>		<line fill="none" stroke="#2E3190" stroke-width="2" stroke-miterlimit="10" x1="0" y1="2059.313" x2="2059.313" y2="2059.313"></line>		<line fill="none" stroke="#2E3190" stroke-width="2" stroke-miterlimit="10" x1="0" y1="1765.125" x2="2059.313" y2="1765.125"></line>		<line fill="none" stroke="#2E3190" stroke-width="2" stroke-miterlimit="10" x1="0" y1="1470.938" x2="2059.313" y2="1470.938"></line>		<line fill="none" stroke="#2E3190" stroke-width="2" stroke-miterlimit="10" x1="0" y1="1176.749" x2="2059.313" y2="1176.749"></line>		<line fill="none" stroke="#2E3190" stroke-width="2" stroke-miterlimit="10" x1="0" y1="882.563" x2="2059.313" y2="882.563"></line>		<line fill="none" stroke="#2E3190" stroke-width="2" stroke-miterlimit="10" x1="0" y1="588.375" x2="2059.313" y2="588.375"></line>		<line fill="none" stroke="#2E3190" stroke-width="2" stroke-miterlimit="10" x1="0" y1="294.188" x2="2059.313" y2="294.188"></line>		<line fill="none" stroke="#2E3190" stroke-width="2" stroke-miterlimit="10" x1="2059.313" y1="0" x2="2059.313" y2="2059.313"></line>		<line fill="none" stroke="#2E3190" stroke-width="2" stroke-miterlimit="10" x1="1765.125" y1="0" x2="1765.125" y2="2059.313"></line>		<line fill="none" stroke="#2E3190" stroke-width="2" stroke-miterlimit="10" x1="1470.938" y1="0" x2="1470.938" y2="2059.313"></line>		<line fill="none" stroke="#2E3190" stroke-width="2" stroke-miterlimit="10" x1="1176.75" y1="0" x2="1176.75" y2="2059.313"></line>		<line fill="none" stroke="#2E3190" stroke-width="2" stroke-miterlimit="10" x1="882.563" y1="0" x2="882.563" y2="2059.313"></line>		<line fill="none" stroke="#2E3190" stroke-width="2" stroke-miterlimit="10" x1="588.375" y1="0" x2="588.375" y2="2059.313"></line>		<line fill="none" stroke="#2E3190" stroke-width="2" stroke-miterlimit="10" x1="294.188" y1="0" x2="294.188" y2="2059.313"></line>	</g>	<g id="old">		<rect display="inline" fill="none" stroke="#2E3190" stroke-width="2" stroke-miterlimit="10" width="2058" height="2058"></rect>					<line display="inline" fill="none" stroke="#2E3190" stroke-width="2" stroke-miterlimit="10" x1="0" y1="1800.75" x2="2058" y2="1800.75"></line>					<line display="inline" fill="none" stroke="#2E3190" stroke-width="2" stroke-miterlimit="10" x1="0" y1="1543.5" x2="2058" y2="1543.5"></line>					<line display="inline" fill="none" stroke="#2E3190" stroke-width="2" stroke-miterlimit="10" x1="0" y1="1286.25" x2="2058" y2="1286.25"></line>					<line display="inline" fill="none" stroke="#2E3190" stroke-width="2" stroke-miterlimit="10" x1="0" y1="1029" x2="2058" y2="1029"></line>					<line display="inline" fill="none" stroke="#2E3190" stroke-width="2" stroke-miterlimit="10" x1="0" y1="771.75" x2="2058" y2="771.75"></line>					<line display="inline" fill="none" stroke="#2E3190" stroke-width="2" stroke-miterlimit="10" x1="0" y1="514.5" x2="2058" y2="514.5"></line>					<line display="inline" fill="none" stroke="#2E3190" stroke-width="2" stroke-miterlimit="10" x1="0" y1="257.25" x2="2058" y2="257.25"></line>					<line display="inline" fill="none" stroke="#2E3190" stroke-width="2" stroke-miterlimit="10" x1="1800.75" y1="0" x2="1800.75" y2="2058"></line>					<line display="inline" fill="none" stroke="#2E3190" stroke-width="2" stroke-miterlimit="10" x1="1543.5" y1="0" x2="1543.5" y2="2058"></line>					<line display="inline" fill="none" stroke="#2E3190" stroke-width="2" stroke-miterlimit="10" x1="1286.25" y1="0" x2="1286.25" y2="2058"></line>					<line display="inline" fill="none" stroke="#2E3190" stroke-width="2" stroke-miterlimit="10" x1="1029" y1="0" x2="1029" y2="2058"></line>					<line display="inline" fill="none" stroke="#2E3190" stroke-width="2" stroke-miterlimit="10" x1="771.75" y1="0" x2="771.75" y2="2058"></line>					<line display="inline" fill="none" stroke="#2E3190" stroke-width="2" stroke-miterlimit="10" x1="514.5" y1="0" x2="514.5" y2="2058"></line>					<line display="inline" fill="none" stroke="#2E3190" stroke-width="2" stroke-miterlimit="10" x1="257.25" y1="0" x2="257.25" y2="2058"></line>	</g>			<rect display="inline" fill="none" stroke="#2E3190" stroke-width="2" stroke-miterlimit="10" width="2059.313" height="2059.313"></rect>	<g id="GOLDEN_RATIO_CRCLES">		<g id="spiral_curve_2_" display="inline">			<path id="_x32_1_3_" fill="none" stroke="#2E3190" stroke-width="2" stroke-miterlimit="10" d="M-88.706,1999.5    C-771.495,1999.5-1324,1446.996-1324,764.206C-1324,341.527-981.974-0.5-559.294-0.5c260.11,0,470.588,210.478,470.588,470.588    c0,162.569-131.549,294.118-294.118,294.118c-97.541,0-176.471-78.929-176.471-176.471c0-65.028,52.619-117.647,117.647-117.647    c32.514,0,58.823,26.31,58.823,58.823c0,32.514-26.31,58.824-58.823,58.824"></path>		</g>					<circle id="_x32_1_2_" display="inline" fill="none" stroke="#FF5A19" stroke-width="2" stroke-miterlimit="10" cx="-941.646" cy="381.853" r="382.353"></circle>					<circle id="_x31_3_1_" display="inline" fill="none" stroke="#FF151F" stroke-width="2" stroke-miterlimit="10" cx="-706.353" cy="1381.854" r="617.647"></circle>					<circle id="_x38__1_" display="inline" fill="none" stroke="#FF8E00" stroke-width="2" stroke-miterlimit="10" cx="-324" cy="234.794" r="235.294"></circle>					<circle id="_x35__1_" display="inline" fill="none" stroke="#41C431" stroke-width="2" stroke-miterlimit="10" cx="-235.764" cy="618.147" r="147.059"></circle>					<circle id="_x31__3_" display="inline" fill="none" stroke="#FF00FF" stroke-width="2" stroke-miterlimit="10" cx="-412.235" cy="558.323" r="29.412"></circle>					<circle id="_x31__2_" display="inline" fill="none" stroke="#FF00FF" stroke-width="2" stroke-miterlimit="10" cx="-412.235" cy="499.5" r="29.412"></circle>					<circle id="_x32__1_" display="inline" fill="none" stroke="#75298F" stroke-width="2" stroke-miterlimit="10" cx="-500.471" cy="528.912" r="58.823"></circle>					<circle id="_x33__1_" display="inline" fill="none" stroke="#00A5F2" stroke-width="2" stroke-miterlimit="10" cx="-470.059" cy="676.971" r="88.235"></circle>					<rect x="-442" y="529" display="inline" fill="none" stroke="#2E3190" stroke-width="2" stroke-miterlimit="10" width="59" height="59"></rect>					<rect x="-442" y="471" display="inline" fill="none" stroke="#2E3190" stroke-width="2" stroke-miterlimit="10" width="59" height="58"></rect>					<rect x="-559" y="471" display="inline" fill="none" stroke="#2E3190" stroke-width="2" stroke-miterlimit="10" width="117" height="117"></rect>					<rect x="-559" y="588" display="inline" fill="none" stroke="#2E3190" stroke-width="2" stroke-miterlimit="10" width="176" height="177"></rect>					<rect x="-383" y="471" display="inline" fill="none" stroke="#2E3190" stroke-width="2" stroke-miterlimit="10" width="294" height="294"></rect>		<rect x="0" display="inline" fill="none" stroke="#EA6B57" stroke-width="2" stroke-miterlimit="10" width="294" height="294"></rect>					<rect x="1764" display="inline" fill="none" stroke="#EA6B57" stroke-width="2" stroke-miterlimit="10" width="294" height="294"></rect>					<rect x="0" y="1764" display="inline" fill="none" stroke="#EA6B57" stroke-width="2" stroke-miterlimit="10" width="294" height="294"></rect>					<rect x="1764" y="1764" display="inline" fill="none" stroke="#EA6B57" stroke-width="2" stroke-miterlimit="10" width="294" height="294"></rect>					<rect x="-559" display="inline" fill="none" stroke="#2E3190" stroke-width="2" stroke-miterlimit="10" width="470" height="471"></rect>					<rect x="-1324" y="765" display="inline" fill="none" stroke="#2E3190" stroke-width="2" stroke-miterlimit="10" width="1235" height="1235"></rect>		<g display="inline">			<rect x="941" y="941" fill="none" stroke="#2E3190" stroke-width="2" stroke-miterlimit="10" width="176" height="176"></rect>			<rect x="412" y="412" fill="none" stroke="#EA6B57" stroke-width="2" stroke-miterlimit="10" width="1235" height="1235"></rect>		</g>					<rect x="-1324" display="inline" fill="none" stroke="#2E3190" stroke-width="2" stroke-miterlimit="10" width="765" height="765"></rect>					<rect x="647" y="647" display="inline" fill="none" stroke="#EA6B57" stroke-width="2" stroke-miterlimit="10" width="765" height="765"></rect>		<g display="inline">							<circle id="_x32_1_1_" fill="none" stroke="#FF5A19" stroke-width="2" stroke-miterlimit="10" cx="2757.068" cy="617.647" r="382.353"></circle>							<circle id="_x31_3_2_" fill="none" stroke="#FF151F" stroke-width="2" stroke-miterlimit="10" cx="2757.068" cy="617.647" r="617.647"></circle>							<circle id="_x38__2_" fill="none" stroke="#FF8E00" stroke-width="2" stroke-miterlimit="10" cx="2757.067" cy="617.647" r="235.294"></circle>							<circle id="_x35__2_" fill="none" stroke="#41C431" stroke-width="2" stroke-miterlimit="10" cx="2757.068" cy="617.647" r="147.059"></circle>							<circle id="_x31__1_" fill="none" stroke="#FF00FF" stroke-width="2" stroke-miterlimit="10" cx="2757.068" cy="617.647" r="29.412"></circle>							<circle id="_x32__2_" fill="none" stroke="#75298F" stroke-width="2" stroke-miterlimit="10" cx="2757.067" cy="617.647" r="58.823"></circle>							<circle id="_x33__2_" fill="none" stroke="#00A5F2" stroke-width="2" stroke-miterlimit="10" cx="2757.067" cy="617.647" r="88.235"></circle>		</g>		<line display="inline" fill="none" stroke="#ED1C24" stroke-miterlimit="10" x1="294" y1="1764" x2="1764" y2="294"></line>		<line fill="none" stroke="#ED1C24" stroke-miterlimit="10" x1="294" y1="1764" x2="1764" y2="294"></line>		<line display="inline" fill="none" stroke="#ED1C24" stroke-miterlimit="10" x1="1764" y1="1764" x2="294" y2="294"></line>		<line fill="none" stroke="#ED1C24" stroke-miterlimit="10" x1="1764" y1="1764" x2="294" y2="294"></line>		<line display="inline" fill="none" stroke="#ED1C24" stroke-miterlimit="10" x1="1029" y1="2057.252" x2="1029" y2="0.748"></line>		<line display="inline" fill="none" stroke="#ED1C24" stroke-miterlimit="10" x1="2057.252" y1="1029" x2="0.749" y2="1029"></line>	</g></g><g id="FULL_LOGO">	<g id="BIO_3_">		<path fill="#071A2B" d="M1241.392,1070.303c15.444,19.065,23.177,41.442,23.177,67.121c0,35.725-11.946,63.915-35.819,84.58   c-23.882,20.674-58.497,31.002-103.843,31.002H942.503V828h178.792c42.938,0,75.945,9.435,99.027,28.294   c23.073,18.869,34.614,45.356,34.614,79.462c0,26.488-6.923,48.16-20.769,65.016c-13.846,16.855-32.009,27.898-54.479,33.109   C1205.366,1039.101,1225.937,1051.245,1241.392,1070.303z M1027.384,1006.189h76.452c21.268,0,37.418-4.713,48.461-14.147   c11.032-9.425,16.555-22.969,16.555-40.634c0-17.655-5.418-31.303-16.255-40.936c-10.835-9.631-27.493-14.448-49.964-14.448   h-75.249V1006.189z M1159.822,1169.028c12.04-9.829,18.06-24.174,18.06-43.042c0-18.86-6.124-33.411-18.361-43.645   c-12.246-10.234-29.601-15.351-52.071-15.351h-80.064v116.785h80.666C1130.522,1183.776,1147.782,1178.866,1159.822,1169.028z"></path>		<path display="none" fill="#071A2B" d="M1401.019,828v425.006h-84.881V828H1401.019z"></path>		<path id="NEWW_-_I_-" fill="#071A2B" d="M1401.012,1211.534V1052.79l0,0V869.676l0,0c-0.004-0.146,0.005-0.291,0-0.438V869l0,0   c-0.904-22.663-19.697-41.247-42.717-41.247s-41.31,18.538-42.207,41.247l0,0v0.414c-0.003,0.088,0.002,0.174,0,0.262l0,0v178.744   l0,0v163.114l0,0c0.004,0.146-0.005,0.291,0,0.438v0.238l0,0c0.904,22.664,19.697,41.247,42.717,41.247   s41.31-18.537,42.207-41.247l0,0v-0.414C1401.015,1211.709,1401.01,1211.622,1401.012,1211.534L1401.012,1211.534z"></path>		<path fill="#071A2B" d="M1764.735,855.238c31.488,18,56.337,43.132,74.529,75.408c18.191,32.276,27.287,68.761,27.287,109.446   c0,40.693-9.096,77.271-27.287,109.738c-18.192,32.479-43.041,57.712-74.529,75.703c-31.496,17.999-66.604,26.994-105.337,26.994   s-73.85-8.995-105.337-26.994c-31.497-17.991-56.337-43.225-74.529-75.703c-18.191-32.468-27.287-69.045-27.287-109.738   c0-40.685,9.096-77.169,27.287-109.446c18.192-32.276,43.032-57.409,74.529-75.408c31.487-17.991,66.604-26.995,105.337-26.995   S1733.239,837.247,1764.735,855.238z M1595.433,920.964c-18.395,10.957-32.771,26.7-43.133,47.24   c-10.371,20.54-15.552,44.508-15.552,71.888c0,27.389,5.181,51.349,15.552,71.888c10.361,20.54,24.738,36.292,43.133,47.241   c18.384,10.956,39.703,16.432,63.965,16.432c24.254,0,45.571-5.476,63.965-16.432c18.386-10.949,32.762-26.701,43.133-47.241   c10.361-20.539,15.552-44.499,15.552-71.888c0-27.38-5.19-51.348-15.552-71.888c-10.371-20.54-24.747-36.283-43.133-47.24   c-18.394-10.948-39.711-16.432-63.965-16.432C1635.136,904.532,1613.817,910.016,1595.433,920.964z"></path>	</g>	<path id="_x33__7_" display="none" fill="#1BB3F7" d="M506.145,1070.199c-9.362-15.938-22.854-28.822-40.476-38.664v-2.361  c13.578-10.229,23.955-22.432,31.113-36.6c7.16-14.167,10.739-30.106,10.739-47.816c0-20.07-3.95-37.383-11.84-51.947  c-7.899-14.555-18.361-26.564-31.39-36.009c-13.035-9.446-27.723-16.428-44.055-20.957c-16.34-4.52-32.766-6.789-49.287-6.789  c-19.824,0-37.911,2.758-54.242,8.264c-16.34,5.516-30.563,13.781-42.679,24.793c-12.115,11.023-21.667,24.793-28.636,41.322  c-6.979,16.529-10.652,35.623-11.013,57.261h87.559c0.731-16.529,4.956-30.402,12.667-41.617  c7.709-11.216,19.824-16.823,36.344-16.823c13.949,0,25.513,4.131,34.694,12.396c9.172,8.264,13.767,20.274,13.767,36.008  c0,15.746-4.5,28.244-13.492,37.486c-8.201,8.431-18.611,13.001-31.228,13.751h-31.95v0.021  c-18.547,0.449-33.447,15.613-33.447,34.271c0,18.656,14.9,33.822,33.447,34.272v0.021h3.428v0.013h24.781  c8.072,0,15.782,1.088,23.13,3.249c7.34,2.167,13.853,5.515,19.55,10.031c5.688,4.531,10.187,10.239,13.492,17.121  c3.304,6.891,4.956,15.052,4.956,24.499c0,9.842-1.652,18.205-4.956,25.087c-3.305,6.892-7.804,12.499-13.492,16.825  c-5.697,4.336-12.21,7.481-19.55,9.443c-7.348,1.975-15.058,2.953-23.13,2.953c-7.709,0-15.238-1.078-22.578-3.246  c-7.348-2.158-13.862-5.405-19.55-9.741c-5.696-4.325-10.282-9.833-13.767-16.528c-3.494-6.688-5.421-14.556-5.783-23.613h-87.559  c0.361,22.046,4.861,41.026,13.491,56.965c8.622,15.939,20.005,29.027,34.143,39.256c14.128,10.241,30.012,17.813,47.634,22.728  c17.623,4.918,35.606,7.381,53.967,7.381c18.724,0,36.983-2.361,54.794-7.084c17.803-4.723,33.678-12.195,47.634-22.433  c13.948-10.229,25.238-23.317,33.868-39.258c8.622-15.938,12.941-35.317,12.941-58.145  C520.187,1104.734,515.506,1086.141,506.145,1070.199z"></path>	<g display="none">		<g id="V_-_2_1_">			<path id="Z_-_TOP_2_" display="inline" fill="#54DE62" d="M806.229,829c-0.01,8.89-1.07,17.58-2.88,25.94    c-1.96,9.11-4.8,17.82-8.13,25.96c-4.19,10.3-9.16,19.69-14.07,27.8v-1.98H596.41c-0.15-0.35-0.29-0.7-0.43-1.05    c-3.1-7.79-5.79-16.05-8.17-24.77h207.32c3.82-9.82,6.43-18.57,8.2-25.96H581.87c-1.6-8.3-3.03-16.95-4.34-25.94H806.229z"></path>			<path display="inline" fill="#54DE62" d="M863.229,1252.76h-228.7c0.01-8.891,1.07-17.58,2.88-25.939    c1.96-9.09,4.79-17.781,8.11-25.9c0-0.02,0.01-0.041,0.02-0.061c3.87-9.51,8.4-18.24,12.94-25.9c0.38-0.639,0.75-1.279,1.13-1.9    v1.98h61.86c3.02,0.34,5.72,1.711,7.75,3.74c2.34,2.35,3.78,5.58,3.78,9.16c0,6.75-5.15,12.279-11.73,12.92h-75.64    c-0.01,0.02-0.02,0.041-0.02,0.061c-3.81,9.799-6.41,18.529-8.18,25.9h221.46C860.49,1235.119,861.919,1243.77,863.229,1252.76z"></path>			<g display="inline">				<g>					<g>						<g>							<path fill="#54DE62" d="M733,1187.939c0,6.75-5.15,12.279-11.73,12.92c-0.39,0.041-0.79,0.061-1.19,0.061h-74.56        c0-0.02,0.01-0.041,0.02-0.061c3.87-9.51,8.4-18.24,12.94-25.9h61.6c0.47,0,0.93,0.031,1.39,0.08        c3.02,0.34,5.72,1.711,7.75,3.74C731.56,1181.129,733,1184.359,733,1187.939z"></path>						</g>					</g>				</g>				<g>					<g>						<path fill="#00B9F2" d="M771.5,1187.939c0,6.77-5.17,12.32-11.78,12.92c-0.4,0.041-0.8,0.061-1.2,0.061s-0.8-0.02-1.2-0.061       c-6.61-0.6-11.78-6.15-11.78-12.92c0-6.689,5.06-12.199,11.57-12.9c0.47-0.049,0.93-0.08,1.41-0.08s0.94,0.031,1.41,0.08       C766.439,1175.74,771.5,1181.25,771.5,1187.939z"></path>					</g>				</g>				<g display="none">					<g display="inline">						<g>							<path fill="#FFFFFF" d="M803.25,854.939c-1.95,9.11-4.79,17.82-8.11,25.96h-55.981v-0.01c-7.14-0.03-12.92-5.83-12.92-12.97        c0-7.15,5.78-12.94,12.92-12.98H803.25z"></path>						</g>					</g>					<path display="inline" fill="#FFFFFF" d="M700.805,854.947v-0.01h-25.154h-56.043h-15.154v0.002h-24.625      c0.56,4.43,1.24,8.78,2.03,13.03c0.87,5.03,1.82,9.26,2.81,12.93h95.47v-0.003h20.667v-0.01      c7.076-0.107,12.783-5.868,12.783-12.97C713.588,860.815,707.88,855.053,700.805,854.947z"></path>				</g>			</g>			<path display="inline" fill="#00B9F2" d="M745.54,1187.939c0-6.689,5.06-12.199,11.57-12.9h87.24    c0.15,0.35,0.29,0.701,0.43,1.051c3.1,7.789,5.79,16.049,8.17,24.77h-95.63C750.709,1200.26,745.54,1194.709,745.54,1187.939z"></path>		</g>		<g id="V_-_1" display="inline">			<path fill="#54DE62" d="M806.229,829h-257.47c0.93,6.29,1.93,12.4,3.02,18.35c4.03,21.97,9.23,41.55,15.59,58.76    c0.08,0.2,0.15,0.4,0.23,0.61h213.55v1.98C793.509,888.279,806.209,859.799,806.229,829z M700.81,880.89v0.01h-113    c-2.24-8.24-4.2-16.9-5.94-25.96h118.94v0.01c7.07,0.1,12.78,5.87,12.78,12.97S707.879,880.779,700.81,880.89z M739.16,880.899    v-0.01c-7.14-0.03-12.92-5.83-12.92-12.97c0-7.15,5.78-12.94,12.92-12.98h64.09c-1.95,9.11-4.79,17.82-8.11,25.96H739.16z"></path>			<path fill="#00B9F2" d="M889.14,1234.439c-0.25-1.369-0.51-2.73-0.77-4.09c-0.52-2.68-1.05-5.32-1.6-7.92    c-1.94-9.141-4.09-17.84-6.47-26.09c-0.22-0.77-0.45-1.551-0.68-2.311c-1.84-6.23-3.81-12.199-5.91-17.91v-0.01    c-0.01-0.029-0.02-0.051-0.03-0.08c-0.13-0.32-0.26-0.65-0.4-0.959H659.77v-1.98c-4.95,8.17-9.95,17.641-14.17,28.029h158.5v0.01    c7.14,0.031,12.92,5.83,12.92,12.971c0,7.15-5.78,12.939-12.92,12.98H637.52c-1.78,8.289-2.82,16.91-2.83,25.709h257.47    C891.229,1246.5,890.229,1240.389,889.14,1234.439z M842.54,1227.08c-7.17,0-12.98-5.811-12.98-12.98    c0-7.16,5.81-12.971,12.98-12.971c5.37,0,9.97,3.25,11.95,7.891c0,0.01,0,0.02,0.01,0.029c0.55,1.311,0.9,2.73,0.99,4.211    c0.02,0.279,0.03,0.561,0.03,0.84C855.52,1221.27,849.709,1227.08,842.54,1227.08z"></path>		</g>		<g id="DNA" display="inline">			<g>				<path fill="#54DE62" d="M617.123,958.669h55.525c7.169,0,12.979-5.812,12.979-12.981c0-7.168-5.81-12.979-12.979-12.979h-68.775     L617.123,958.669z"></path>				<path fill="#54DE62" d="M764.802,1135.98c0-7.104-5.706-12.863-12.782-12.971V1123h-81.197v25.959h81.197v-0.01     C759.096,1148.842,764.802,1143.08,764.802,1135.98z"></path>				<path fill="#00B9F2" d="M711.13,932.858L711.13,932.858c-7.167,0-12.979,5.002-12.979,12.979     c0,7.168,5.812,12.979,12.979,12.979l0,0h79.881v-25.958H711.13z"></path>				<g>					<g>						<circle fill="#1BB3F7" cx="635.201" cy="998.229" r="12.979"></circle>						<path fill="#54DE62" d="M673.748,985.25v0.003c-7.138,0.035-12.914,5.831-12.914,12.976s5.776,12.94,12.914,12.978v0.002H732       V985.25H673.748z"></path>					</g>				</g>				<g display="none">					<g display="inline">						<circle fill="#54DE62" cx="814.02" cy="1083.229" r="12.979"></circle>						<path fill="#00B9F2" d="M775.473,1096.209v-0.004c7.138-0.035,12.914-5.83,12.914-12.977c0-7.145-5.776-12.939-12.914-12.977       v-0.002h-58.251v25.959H775.473z"></path>					</g>				</g>				<g>					<g>						<path fill="#54DE62" d="M814.251,1096.494v-0.004c7.138-0.035,12.914-5.83,12.914-12.977c0-7.145-5.776-12.939-12.914-12.977       v-0.002H712v25.959H814.251z"></path>					</g>				</g>				<path fill="#00B9F2" d="M823.689,1123.119h-32.981c-7.169,0-12.979,5.813-12.979,12.982c0,7.168,5.81,12.979,12.979,12.979     h46.231L823.689,1123.119z"></path>			</g>		</g>		<g id="HELIX" display="inline">			<g id="HELIX_-_Top">				<path fill="#54DE62" d="M596.64,906.839h-29.19c-0.16-0.391-0.31-0.78-0.47-1.17c-8.72-21.91-14.2-47.471-18.45-76.67h0.23     c0.01,0.039,0.01-0.039,0.02,0h28.98c1.29,8.91,2.71,17.6,4.29,25.83c1.74,9.069,3.69,17.719,5.93,25.959     c2.39,8.801,5.1,17.131,8.23,25C596.35,906.139,596.49,906.49,596.64,906.839z"></path>				<g>					<path fill="#54DE62" d="M623.255,958.625h-29c-10.42-15.95-19.37-33.324-26.84-51.924l29.162-0.003      C604.037,925.289,612.835,942.665,623.255,958.625z"></path>				</g>			</g>			<g id="HELIX_-_Bottom">				<path fill="#00B9F2" d="M844.049,1174.906h29.19c0.16,0.391,0.31,0.78,0.47,1.17c8.72,21.91,14.2,47.484,18.45,76.684h-0.23     c-0.01-0.039-0.01,0.039-0.02,0h-28.98c-1.29-8.91-2.71-17.613-4.29-25.844c-1.74-9.069-3.69-17.719-5.93-25.959     c-2.39-8.801-5.1-17.131-8.23-25C844.339,1175.606,844.199,1175.256,844.049,1174.906z"></path>				<g>					<path fill="#00B9F2" d="M817.434,1123.12h29c10.42,15.95,19.37,33.324,26.84,51.924l-29.162,0.003      C836.652,1156.457,827.854,1139.081,817.434,1123.12z"></path>				</g>			</g>		</g>		<linearGradient id="Z_CURVE_6_" gradientUnits="userSpaceOnUse" x1="880.8501" y1="880.3496" x2="584.9974" y2="1176.2023">			<stop offset="0" style="stop-color:#54DE62"></stop>			<stop offset="0.5" style="stop-color:#37C8AD"></stop>			<stop offset="1" style="stop-color:#1BB3F7"></stop>		</linearGradient>		<path id="Z_CURVE_1_" display="inline" fill="url(#Z_CURVE_6_)" d="M892.1,829c-4.25,29.2-9.73,54.76-18.44,76.67   c-8.71,21.9-17.45,41.98-30.21,60.24c-12.78,18.24-27.48,35.78-44.13,52.62c-7.2,7.291-14.68,14.82-22.47,22.609h-0.2   c-4.15,4.201-8.36,8.461-12.76,12.852c-8.51,8.539-18.19,18.199-29.02,28.959c-10.84,10.76-15.63,15.641-26.27,27.211   c-10.64,11.58-23.15,22.969-31.9,35.35c-8.09,11.439-14.63,22.4-19.89,32.629c-0.03,0.051-0.05,0.102-0.08,0.15   c-4.18,8.1-7.57,15.74-10.32,22.83c-3.82,9.83-6.4,18.58-8.16,25.961c-2.15,9.039-3.05,16.02-3.42,20.4   c0,0.029-0.01,0.068-0.01,0.1c-0.29,3.369-0.26,5.18-0.26,5.18h-86.03c4.25-29.201,9.73-54.76,18.45-76.67   c8.7-21.9,21.44-41.98,34.21-60.23s27.47-35.789,44.12-52.629c7.2-7.291,14.69-14.82,22.47-22.611h0.2   c4.15-4.189,8.36-8.459,12.76-12.85c8.51-8.539,18.19-18.199,29.02-28.96c10.84-10.76,15.63-15.63,26.27-27.21   c10.65-11.58,19.15-22.97,27.9-35.35c6.77-9.58,12.45-18.81,17.22-27.57c5.42-9.94,9.66-19.26,12.98-27.78   c3.82-9.82,6.43-18.57,8.2-25.96c3.89-16.26,3.75-25.94,3.75-25.94H892.1z"></path>	</g>	<g>		<g id="V_-_2_2_" display="none">			<path id="Z_-_TOP_1_" display="inline" fill="#54DE62" d="M805.832,829.441c-0.009,8.889-1.07,17.578-2.88,25.937    c-1.959,9.109-4.8,17.817-8.128,25.957c-4.191,10.299-9.159,19.688-14.069,27.797v-1.979h-184.72c-0.15-0.35-0.29-0.7-0.429-1.05    c-3.101-7.79-5.79-16.048-8.169-24.768h207.297c3.82-9.819,6.43-18.567,8.199-25.957H581.495    c-1.599-8.299-3.029-16.948-4.338-25.937H805.832z"></path>			<path display="inline" fill="#54DE62" d="M862.825,1253.154l-228.675-0.001c0.01-8.887,1.07-17.577,2.879-25.937    c1.96-9.088,4.79-17.776,8.11-25.897c0-0.02,0.009-0.038,0.019-0.059c3.87-9.511,8.4-18.237,12.939-25.897    c0.38-0.64,0.75-1.28,1.13-1.899v1.979h61.853c3.02,0.341,5.72,1.709,7.75,3.74c2.339,2.35,3.779,5.58,3.779,9.159    c0,6.75-5.148,12.278-11.729,12.918h-75.632c-0.009,0.021-0.019,0.039-0.019,0.059c-3.811,9.8-6.41,18.53-8.179,25.897h221.436    C860.085,1235.518,861.515,1244.165,862.825,1253.154z"></path>			<g display="inline">				<g>					<g>						<g>							<path fill="#54DE62" d="M732.609,1188.343c0,6.75-5.148,12.278-11.729,12.918c-0.39,0.039-0.789,0.059-1.19,0.059h-74.55        c0-0.02,0.009-0.038,0.019-0.059c3.87-9.511,8.4-18.237,12.939-25.897h61.592c0.471,0,0.931,0.03,1.391,0.08        c3.02,0.341,5.72,1.709,7.75,3.74C731.169,1181.533,732.609,1184.764,732.609,1188.343z"></path>						</g>					</g>				</g>				<g>					<g>						<path fill="#00B9F2" d="M771.104,1188.343c0,6.77-5.169,12.317-11.778,12.918c-0.4,0.039-0.8,0.059-1.2,0.059       c-0.4,0-0.799-0.02-1.201-0.059c-6.609-0.601-11.778-6.148-11.778-12.918c0-6.69,5.06-12.2,11.568-12.899       c0.47-0.05,0.93-0.08,1.411-0.08c0.479,0,0.939,0.03,1.41,0.08C766.046,1176.143,771.104,1181.652,771.104,1188.343z"></path>					</g>				</g>				<g display="none">					<g display="inline">						<g>							<path fill="#FFFFFF" d="M802.851,855.378c-1.949,9.109-4.79,17.817-8.108,25.957h-55.975v-0.01        c-7.141-0.03-12.919-5.829-12.919-12.969c0-7.149,5.778-12.939,12.919-12.979H802.851z"></path>						</g>					</g>					<path display="inline" fill="#FFFFFF" d="M700.417,855.386v-0.01h-25.151H619.23h-15.152v0.002h-24.622      c0.559,4.43,1.238,8.779,2.028,13.029c0.87,5.029,1.82,9.259,2.811,12.928h95.459v-0.003h20.664v-0.009      c7.075-0.107,12.783-5.868,12.783-12.969C713.201,861.253,707.492,855.492,700.417,855.386z"></path>				</g>			</g>		</g>		<path id="_x33__8_" fill="#1BB3F7" d="M505.78,1070.614c-9.362-15.937-22.851-28.819-40.471-38.66v-2.361   c13.576-10.228,23.952-22.429,31.109-36.595c7.159-14.165,10.738-30.103,10.738-47.811c0-20.068-3.949-37.378-11.839-51.941   c-7.897-14.554-18.359-26.562-31.386-36.005c-13.034-9.445-27.719-16.427-44.05-20.955c-16.339-4.52-32.763-6.788-49.281-6.788   c-19.822,0-37.907,2.758-54.237,8.262c-16.338,5.516-30.56,13.78-42.673,24.791c-12.114,11.023-21.665,24.791-28.633,41.318   c-6.978,16.527-10.651,35.619-11.013,57.254h87.55c0.731-16.527,4.956-30.398,12.664-41.612   c7.708-11.215,19.822-16.822,36.341-16.822c13.946,0,25.51,4.131,34.69,12.395c9.171,8.263,13.765,20.271,13.765,36.004   c0,15.745-4.5,28.24-13.49,37.482c-8.201,8.43-18.609,13-31.224,13.75h-31.947v0.021c-18.545,0.448-33.443,15.612-33.443,34.267   s14.898,33.818,33.443,34.27v0.021h3.428v0.012H370.6c8.07,0,15.779,1.088,23.127,3.25c7.339,2.166,13.851,5.513,19.548,10.029   c5.687,4.532,10.185,10.237,13.489,17.12c3.304,6.889,4.956,15.049,4.956,24.495c0,9.841-1.651,18.203-4.956,25.085   c-3.304,6.89-7.802,12.497-13.489,16.822c-5.697,4.336-12.209,7.482-19.548,9.442c-7.348,1.975-15.057,2.952-23.127,2.952   c-7.708,0-15.237-1.078-22.576-3.245c-7.347-2.158-13.859-5.403-19.547-9.739c-5.696-4.325-10.281-9.833-13.765-16.527   c-3.494-6.687-5.421-14.553-5.782-23.611h-87.55c0.361,22.046,4.861,41.023,13.49,56.96c8.622,15.937,20.004,29.023,34.14,39.251   c14.126,10.241,30.008,17.81,47.628,22.727c17.621,4.917,35.603,7.379,53.962,7.379c18.721,0,36.978-2.361,54.788-7.082   c17.8-4.723,33.675-12.194,47.63-22.432c13.945-10.228,25.234-23.314,33.863-39.253c8.621-15.937,12.939-35.313,12.939-58.139   C519.82,1105.146,515.14,1086.553,505.78,1070.614z"></path>		<linearGradient id="_x33__16_" gradientUnits="userSpaceOnUse" x1="370.5996" y1="1253.2998" x2="370.5996" y2="829.4985">			<stop offset="0" style="stop-color:#071A2B"></stop>			<stop offset="0.8" style="stop-color:#071A2B;stop-opacity:0"></stop>		</linearGradient>		<path id="_x33__6_" display="none" fill="url(#_x33__16_)" d="M505.78,1070.614c-9.362-15.937-22.851-28.819-40.471-38.66v-2.361   c13.576-10.228,23.952-22.429,31.109-36.595c7.159-14.165,10.738-30.103,10.738-47.811c0-20.068-3.949-37.378-11.839-51.941   c-7.897-14.554-18.359-26.562-31.386-36.005c-13.034-9.445-27.719-16.427-44.05-20.955c-16.339-4.52-32.763-6.788-49.281-6.788   c-19.822,0-37.907,2.758-54.237,8.262c-16.338,5.516-30.56,13.78-42.673,24.791c-12.114,11.023-21.665,24.791-28.633,41.318   c-6.978,16.527-10.651,35.619-11.013,57.254h87.55c0.731-16.527,4.956-30.398,12.664-41.612   c7.708-11.215,19.822-16.822,36.341-16.822c13.946,0,25.51,4.131,34.69,12.395c9.171,8.263,13.765,20.271,13.765,36.004   c0,15.745-4.5,28.24-13.49,37.482c-8.201,8.43-18.609,13-31.224,13.75h-31.947v0.021c-18.545,0.448-33.443,15.612-33.443,34.267   s14.898,33.818,33.443,34.27v0.021h3.428v0.012H370.6c8.07,0,15.779,1.088,23.127,3.25c7.339,2.166,13.851,5.513,19.548,10.029   c5.687,4.532,10.185,10.237,13.489,17.12c3.304,6.889,4.956,15.049,4.956,24.495c0,9.841-1.651,18.203-4.956,25.085   c-3.304,6.89-7.802,12.497-13.489,16.822c-5.697,4.336-12.209,7.482-19.548,9.442c-7.348,1.975-15.057,2.952-23.127,2.952   c-7.708,0-15.237-1.078-22.576-3.245c-7.347-2.158-13.859-5.403-19.547-9.739c-5.696-4.325-10.281-9.833-13.765-16.527   c-3.494-6.687-5.421-14.553-5.782-23.611h-87.55c0.361,22.046,4.861,41.023,13.49,56.96c8.622,15.937,20.004,29.023,34.14,39.251   c14.126,10.241,30.008,17.81,47.628,22.727c17.621,4.917,35.603,7.379,53.962,7.379c18.721,0,36.978-2.361,54.788-7.082   c17.8-4.723,33.675-12.194,47.63-22.432c13.945-10.228,25.234-23.314,33.863-39.253c8.621-15.937,12.939-35.313,12.939-58.139   C519.82,1105.146,515.14,1086.553,505.78,1070.614z"></path>		<g>			<g id="DNA_1_">				<g>					<path fill="#54DE62" d="M616.746,959.097h55.518c7.169,0,12.978-5.811,12.978-12.979c0-7.167-5.808-12.978-12.978-12.978      h-68.767L616.746,959.097z"></path>					<path fill="#00B9F2" d="M745.148,1188.343c0-6.69,5.06-12.2,11.568-12.899h87.231c0.149,0.351,0.29,0.699,0.43,1.049      c3.1,7.791,5.789,16.049,8.169,24.769h-95.62C750.317,1200.66,745.148,1195.112,745.148,1188.343z"></path>					<path fill="#54DE62" d="M764.408,1136.388c0-7.103-5.705-12.86-12.78-12.967v-0.01l-81.189-0.001v25.956h81.189v-0.012      C758.703,1149.249,764.408,1143.488,764.408,1136.388z"></path>					<path fill="#00B9F2" d="M710.742,933.289L710.742,933.289c-7.165,0.001-12.977,5.002-12.977,12.978      c0,7.168,5.812,12.977,12.977,12.977l0,0h79.873v-25.955H710.742z"></path>					<g>						<g>							<circle fill="#1BB3F7" cx="634.821" cy="998.652" r="12.978"></circle>							<path fill="#54DE62" d="M673.365,985.675v0.003c-7.137,0.035-12.913,5.83-12.913,12.974c0,7.146,5.776,12.939,12.913,12.976        v0.002h58.244v-25.955H673.365z"></path>						</g>					</g>					<g display="none">						<g display="inline">							<circle fill="#54DE62" cx="813.62" cy="1083.641" r="12.978"></circle>							<path fill="#00B9F2" d="M775.079,1096.621v-0.004c7.137-0.035,12.912-5.83,12.912-12.977c0-7.143-5.775-12.938-12.912-12.975        v-0.002h-58.246v25.956L775.079,1096.621z"></path>						</g>					</g>					<g>						<g>							<path fill="#54DE62" d="M813.853,1096.906v-0.004c7.136-0.035,12.913-5.83,12.913-12.976c0-7.144-5.777-12.938-12.913-12.976        v-0.002H711.611v25.956L813.853,1096.906z"></path>						</g>					</g>					<path fill="#00B9F2" d="M823.289,1123.53h-32.978c-7.168,0-12.977,5.81-12.977,12.979c0,7.167,5.809,12.978,12.977,12.978      h46.227L823.289,1123.53z"></path>				</g>			</g>			<g id="V_-_OOO_1_">				<g>					<path fill="#1BB3F7" d="M873.144,1176.083c-0.079-0.2-0.149-0.398-0.229-0.609h-0.041c0.14,0.311,0.27,0.641,0.4,0.96      C873.234,1176.313,873.184,1176.204,873.144,1176.083z M855.566,1213.658c-0.09-1.479-0.44-2.897-0.99-4.208      C854.916,1210.84,855.246,1212.238,855.566,1213.658z"></path>				</g>				<g>					<g>						<path fill="#FFFFFF" d="M855.566,1213.658c-0.32-1.42-0.65-2.818-0.99-4.208       C855.126,1210.761,855.476,1212.18,855.566,1213.658z"></path>					</g>				</g>				<g>					<path fill="#FFFFFF" d="M587.436,881.335c-2.24-8.239-4.2-16.898-5.94-25.957L587.436,881.335z"></path>				</g>				<path fill="#54DE62" d="M805.832,829.441H548.389c0.931,6.289,1.931,12.398,3.02,18.348c4.03,21.967,9.229,41.545,15.589,58.753     c0.08,0.2,0.15,0.399,0.23,0.61h213.526v1.979C793.112,888.715,805.812,860.238,805.832,829.441z M700.423,881.326v0.01H587.436     c-2.24-8.239-4.2-16.898-5.94-25.957h118.928v0.01c7.068,0.1,12.778,5.869,12.778,12.968S707.492,881.216,700.423,881.326z      M738.768,881.335v-0.01c-7.139-0.03-12.918-5.829-12.918-12.969c0-7.149,5.779-12.939,12.918-12.979h64.083     c-1.95,9.109-4.79,17.817-8.108,25.957H738.768z"></path>				<path fill="#00B9F2" d="M888.476,1234.838c-0.251-1.371-0.511-2.73-0.771-4.091c-0.52-2.681-1.05-5.318-1.6-7.92     c-1.94-9.138-4.089-17.837-6.47-26.087c-0.22-0.77-0.449-1.549-0.68-2.308c-1.839-6.23-3.81-12.2-5.909-17.909v-0.009     c-0.01-0.032-0.02-0.051-0.03-0.081c-0.131-0.319-0.26-0.649-0.4-0.96H659.131v-1.98c-4.95,8.168-9.95,17.638-14.168,28.027     h158.961v0.011c7.14,0.028,12.919,5.829,12.919,12.967c0,7.15-5.779,12.939-12.919,12.979H636.883     c-1.78,8.291-2.82,16.908-2.83,25.708l257.441,0.001C890.565,1246.896,889.565,1240.787,888.476,1234.838z M842.361,1227.477     c-7.169,0-12.979-5.81-12.979-12.979c0-7.157,5.81-12.967,12.979-12.967c5.369,0,9.968,3.25,11.949,7.887     c0,0.013,0,0.022,0.009,0.032c0.55,1.311,0.899,2.729,0.99,4.208c0.02,0.281,0.029,0.561,0.029,0.84     C855.338,1221.667,849.53,1227.477,842.361,1227.477z"></path>				<path fill="#54DE62" d="M855.566,1213.658c-0.32-1.42-0.65-2.818-0.99-4.208C855.126,1210.761,855.476,1212.18,855.566,1213.658     z"></path>			</g>			<g id="OVERLAY_1_" display="none" opacity="0.8">				<g display="inline">					<linearGradient id="SVGID_1_" gradientUnits="userSpaceOnUse" x1="854.5757" y1="1194.5664" x2="873.2739" y2="1194.5664">						<stop offset="0" style="stop-color:#071A2B;stop-opacity:0"></stop>						<stop offset="1" style="stop-color:#071A2B"></stop>					</linearGradient>					<path fill="url(#SVGID_1_)" d="M873.144,1176.083c-0.079-0.2-0.149-0.398-0.229-0.609h-0.041c0.14,0.311,0.27,0.641,0.4,0.96      C873.234,1176.313,873.184,1176.204,873.144,1176.083z M855.566,1213.658c-0.09-1.479-0.44-2.897-0.99-4.208      C854.916,1210.84,855.246,1212.238,855.566,1213.658z"></path>				</g>				<g display="inline">					<g>						<linearGradient id="SVGID_2_" gradientUnits="userSpaceOnUse" x1="854.5757" y1="1211.5547" x2="855.5659" y2="1211.5547">							<stop offset="0" style="stop-color:#071A2B;stop-opacity:0"></stop>							<stop offset="1" style="stop-color:#071A2B"></stop>						</linearGradient>						<path fill="url(#SVGID_2_)" d="M855.566,1213.658c-0.32-1.42-0.65-2.818-0.99-4.208       C855.126,1210.761,855.476,1212.18,855.566,1213.658z"></path>					</g>				</g>				<g display="inline">					<linearGradient id="SVGID_3_" gradientUnits="userSpaceOnUse" x1="581.4951" y1="868.3569" x2="587.4355" y2="868.3569">						<stop offset="0" style="stop-color:#071A2B;stop-opacity:0"></stop>						<stop offset="1" style="stop-color:#071A2B"></stop>					</linearGradient>					<path fill="url(#SVGID_3_)" d="M587.436,881.335c-2.24-8.239-4.2-16.898-5.94-25.957L587.436,881.335z"></path>				</g>				<linearGradient id="SVGID_4_" gradientUnits="userSpaceOnUse" x1="548.3892" y1="869.2871" x2="805.8315" y2="869.2871">					<stop offset="0.2" style="stop-color:#071A2B;stop-opacity:0"></stop>					<stop offset="1" style="stop-color:#071A2B"></stop>				</linearGradient>				<path display="inline" fill="url(#SVGID_4_)" d="M805.832,829.441H548.389c0.931,6.289,1.931,12.398,3.02,18.348     c4.03,21.967,9.229,41.545,15.589,58.753c0.08,0.2,0.15,0.399,0.23,0.61h213.526v1.979     C793.112,888.715,805.812,860.238,805.832,829.441z M700.423,881.326v0.01H587.436c-2.24-8.239-4.2-16.898-5.94-25.957h118.928     v0.01c7.068,0.1,12.778,5.869,12.778,12.968S707.492,881.216,700.423,881.326z M738.768,881.335v-0.01     c-7.139-0.03-12.918-5.829-12.918-12.969c0-7.149,5.779-12.939,12.918-12.979h64.083c-1.95,9.109-4.79,17.817-8.108,25.957     H738.768z"></path>				<linearGradient id="SVGID_5_" gradientUnits="userSpaceOnUse" x1="634.0537" y1="1213.3398" x2="891.4946" y2="1213.3398">					<stop offset="0" style="stop-color:#071A2B"></stop>					<stop offset="0.8" style="stop-color:#071A2B;stop-opacity:0"></stop>				</linearGradient>				<path display="inline" fill="url(#SVGID_5_)" d="M888.476,1234.838c-0.251-1.371-0.511-2.73-0.771-4.091     c-0.52-2.681-1.05-5.318-1.6-7.92c-1.94-9.138-4.089-17.837-6.47-26.087c-0.22-0.77-0.449-1.549-0.68-2.308     c-1.839-6.23-3.81-12.2-5.909-17.909v-0.009c-0.01-0.032-0.02-0.051-0.03-0.081c-0.131-0.319-0.26-0.649-0.4-0.96H659.131v-1.98     c-4.95,8.168-9.95,17.638-14.168,28.027h158.961v0.011c7.14,0.028,12.919,5.829,12.919,12.967     c0,7.15-5.779,12.939-12.919,12.979H636.883c-1.78,8.291-2.82,16.908-2.83,25.708l257.441,0.001     C890.565,1246.896,889.565,1240.787,888.476,1234.838z M842.361,1227.477c-7.169,0-12.979-5.81-12.979-12.979     c0-7.157,5.81-12.967,12.979-12.967c5.369,0,9.968,3.25,11.949,7.887c0,0.013,0,0.022,0.009,0.032     c0.55,1.311,0.899,2.729,0.99,4.208c0.02,0.281,0.029,0.561,0.029,0.84C855.338,1221.667,849.53,1227.477,842.361,1227.477z"></path>				<linearGradient id="SVGID_6_" gradientUnits="userSpaceOnUse" x1="854.5757" y1="1211.5547" x2="855.5659" y2="1211.5547">					<stop offset="0" style="stop-color:#071A2B;stop-opacity:0"></stop>					<stop offset="1" style="stop-color:#071A2B"></stop>				</linearGradient>				<path display="inline" fill="url(#SVGID_6_)" d="M855.566,1213.658c-0.32-1.42-0.65-2.818-0.99-4.208     C855.126,1210.761,855.476,1212.18,855.566,1213.658z"></path>			</g>			<linearGradient id="Z_CURVE_7_" gradientUnits="userSpaceOnUse" x1="880.4438" y1="880.7861" x2="584.6248" y2="1176.6052">				<stop offset="0" style="stop-color:#54DE62"></stop>				<stop offset="0.5" style="stop-color:#37C8AD"></stop>				<stop offset="1" style="stop-color:#1BB3F7"></stop>			</linearGradient>			<path id="Z_CURVE_2_" fill="url(#Z_CURVE_7_)" d="M891.692,829.441c-4.25,29.197-9.729,54.753-18.438,76.662    c-8.709,21.897-17.448,41.975-30.207,60.234c-12.779,18.237-27.477,35.776-44.125,52.614    c-7.199,7.287-14.678,14.816-22.467,22.607h-0.2c-4.15,4.198-8.359,8.457-12.759,12.849c-8.509,8.54-18.188,18.198-29.017,28.957    c-10.839,10.758-15.629,15.638-26.267,27.206c-10.64,11.578-23.147,22.968-31.897,35.346    c-8.088,11.439-14.628,22.397-19.887,32.627c-0.029,0.051-0.05,0.1-0.08,0.15c-4.18,8.099-7.569,15.738-10.319,22.827    c-3.819,9.83-6.399,18.578-8.16,25.956c-2.149,9.041-3.049,16.019-3.419,20.398c0,0.029-0.009,0.07-0.009,0.101    c-0.29,3.37-0.26,5.178-0.26,5.178H548.16c4.249-29.195,9.728-54.753,18.448-76.661c8.699-21.896,21.437-41.975,34.207-60.222    c12.768-18.249,27.466-35.787,44.115-52.624c7.198-7.289,14.688-14.82,22.467-22.607h0.2c4.148-4.192,8.358-8.46,12.758-12.85    c8.508-8.539,18.188-18.197,29.016-28.957c10.84-10.758,15.629-15.628,26.267-27.206c10.649-11.579,19.148-22.968,27.898-35.347    c6.769-9.579,12.448-18.808,17.218-27.566c5.419-9.939,9.659-19.258,12.978-27.777c3.82-9.819,6.43-18.567,8.2-25.957    c3.891-16.258,3.75-25.937,3.75-25.937H891.692z"></path>			<g id="helix_sides_1_">				<path fill="#54DE62" d="M596.034,907.153h-28.806c-0.08-0.21-0.15-0.41-0.23-0.61c-6.36-17.208-11.559-36.786-15.589-58.753     c-1.089-5.95-2.089-12.059-3.02-18.348h28.768c1.309,8.989,2.74,17.638,4.338,25.937c1.741,9.059,3.7,17.718,5.94,25.957     c2.38,8.719,5.068,16.978,8.169,24.768C595.744,906.453,595.884,906.803,596.034,907.153z"></path>				<path fill="#54DE62" d="M622.911,959.097h-28.997c-10.638-16.289-19.748-33.957-27.306-52.994     c-8.72-21.908-14.199-47.465-18.448-76.662h0.229c0.931,6.289,1.931,12.398,3.02,18.348c4.03,21.967,9.229,41.545,15.589,58.753     c0.08,0.2,0.15,0.399,0.23,0.61h28.806C603.503,925.791,612.473,943.109,622.911,959.097z"></path>				<path fill="#00B9F2" d="M891.751,1253.186h-28.997c-1.29-8.909-2.709-17.479-4.29-25.709c-1.74-9.068-3.689-17.717-5.929-25.956     c-2.391-8.8-5.1-17.128-8.23-24.997c-0.14-0.351-0.279-0.7-0.43-1.05h28.997c0.151,0.339,0.29,0.688,0.43,1.041v0.009     c6.29,17.098,11.43,36.535,15.429,58.314C889.823,1240.787,890.822,1246.896,891.751,1253.186z"></path>				<path fill="#00B9F2" d="M845.997,1123.53c10.438,15.988,19.408,33.304,26.877,51.943h-28.997     c-7.469-18.64-16.439-35.955-26.876-51.943H845.997z"></path>			</g>		</g>	</g>	<g display="none">		<g id="V_-_2_5_">			<path id="Z_-_TOP_5_" display="inline" fill="#54DE62" d="M805.971,828.761c-0.01,8.9-1.072,17.6-2.884,25.97    c-1.962,9.121-4.806,17.841-8.139,25.99c-4.195,10.312-9.171,19.712-14.086,27.832v-1.982H595.909    c-0.15-0.35-0.291-0.701-0.43-1.051c-3.105-7.799-5.797-16.068-8.18-24.799l207.559,0c3.824-9.832,6.438-18.591,8.209-25.99    H581.352c-1.602-8.31-3.034-16.969-4.345-25.97H805.971z"></path>			<path display="inline" fill="#54DE62" d="M863.037,1253.008H634.073c0.01-8.898,1.072-17.6,2.883-25.969    c1.962-9.101,4.795-17.8,8.12-25.931c0-0.02,0.01-0.038,0.02-0.059c3.875-9.522,8.411-18.261,12.956-25.931    c0.38-0.641,0.75-1.282,1.131-1.902v1.982h61.932c3.022,0.341,5.726,1.712,7.758,3.746c2.343,2.352,3.784,5.586,3.784,9.17    c0,6.758-5.155,12.293-11.743,12.935h-75.728c-0.01,0.021-0.019,0.039-0.019,0.059c-3.815,9.813-6.418,18.554-8.189,25.931    h221.715C860.292,1235.35,861.725,1244.008,863.037,1253.008z"></path>			<g display="inline">				<g>					<g>						<g>							<path fill="#54DE62" d="M732.656,1188.115c0,6.758-5.155,12.293-11.743,12.935c-0.391,0.039-0.791,0.059-1.192,0.059h-74.646        c0-0.02,0.01-0.038,0.02-0.059c3.875-9.522,8.411-18.261,12.956-25.931h61.67c0.47,0,0.931,0.03,1.393,0.08        c3.022,0.341,5.726,1.712,7.758,3.746C731.215,1181.297,732.656,1184.531,732.656,1188.115z"></path>						</g>					</g>				</g>				<g>					<g>						<path fill="#00B9F2" d="M771.201,1188.115c0,6.777-5.176,12.332-11.793,12.935c-0.401,0.039-0.801,0.059-1.202,0.059       s-0.801-0.02-1.201-0.059c-6.618-0.603-11.794-6.157-11.794-12.935c0-6.699,5.066-12.215,11.583-12.916       c0.471-0.05,0.932-0.08,1.412-0.08s0.941,0.03,1.412,0.08C766.135,1175.9,771.201,1181.416,771.201,1188.115z"></path>					</g>				</g>				<g display="none">					<g display="inline">						<g>							<path fill="#FFFFFF" d="M802.986,854.73c-1.951,9.121-4.795,17.841-8.118,25.99h-56.046v-0.01        c-7.149-0.03-12.935-5.836-12.935-12.985c0-7.158,5.786-12.955,12.935-12.995H802.986z"></path>						</g>					</g>					<path display="inline" fill="#FFFFFF" d="M700.424,854.738v-0.01h-25.183h-56.108h-15.171v0.002h-24.654      c0.561,4.435,1.241,8.791,2.032,13.045c0.871,5.035,1.823,9.27,2.814,12.944l95.58,0v-0.003h20.69v-0.01      c7.083-0.107,12.798-5.875,12.798-12.985C713.223,860.613,707.507,854.844,700.424,854.738z"></path>				</g>			</g>		</g>		<path id="_x33__15_" display="inline" fill="#1BB3F7" d="M505.54,1070.237c-9.373-15.956-22.879-28.855-40.522-38.708v-2.365   c13.593-10.239,23.981-22.456,31.149-36.641c7.167-14.183,10.75-30.141,10.75-47.871c0-20.094-3.953-37.426-11.853-52.007   c-7.908-14.572-18.383-26.594-31.426-36.05c-13.05-9.457-27.754-16.447-44.105-20.981c-16.36-4.525-32.805-6.796-49.344-6.796   c-19.847,0-37.955,2.761-54.305,8.272c-16.358,5.523-30.598,13.797-42.728,24.822c-12.129,11.037-21.692,24.823-28.669,41.371   c-6.987,16.548-10.665,35.664-11.026,57.327h87.661c0.732-16.548,4.962-30.437,12.681-41.665   c7.718-11.229,19.847-16.843,36.386-16.843c13.964,0,25.542,4.136,34.734,12.411c9.183,8.273,13.783,20.297,13.783,36.05   c0,15.764-4.505,28.276-13.508,37.529c-8.211,8.44-18.633,13.016-31.263,13.767h-31.987v0.021   c-18.568,0.45-33.486,15.631-33.486,34.31c0,18.678,14.917,33.861,33.486,34.313v0.021h3.432v0.012h24.81   c8.081,0,15.8,1.089,23.157,3.253c7.348,2.168,13.869,5.52,19.573,10.043c5.693,4.536,10.198,10.25,13.506,17.141   c3.308,6.898,4.962,15.068,4.962,24.526c0,9.854-1.654,18.226-4.962,25.117c-3.309,6.898-7.813,12.513-13.506,16.843   c-5.704,4.341-12.225,7.491-19.573,9.454c-7.357,1.978-15.076,2.957-23.157,2.957c-7.718,0-15.256-1.08-22.604-3.25   c-7.356-2.16-13.877-5.41-19.572-9.752c-5.703-4.33-10.294-9.844-13.783-16.547c-3.497-6.696-5.427-14.572-5.789-23.641h-87.661   c0.362,22.071,4.867,41.074,13.507,57.03c8.632,15.957,20.029,29.061,34.183,39.301c14.145,10.254,30.047,17.833,47.689,22.755   c17.644,4.924,35.647,7.389,54.03,7.389c18.745,0,37.025-2.363,54.857-7.092c17.824-4.728,33.718-12.209,47.69-22.459   c13.963-10.24,25.267-23.344,33.906-39.304c8.632-15.955,12.956-35.356,12.956-58.211   C519.598,1104.813,514.912,1086.197,505.54,1070.237z"></path>		<linearGradient id="_x33__18_" gradientUnits="userSpaceOnUse" x1="370.1895" y1="1253.1543" x2="370.1894" y2="828.8184">			<stop offset="0" style="stop-color:#071A2B"></stop>			<stop offset="0.8" style="stop-color:#071A2B;stop-opacity:0"></stop>		</linearGradient>		<path id="_x33__14_" display="inline" fill="url(#_x33__18_)" d="M505.54,1070.237c-9.373-15.956-22.879-28.855-40.522-38.708   v-2.365c13.593-10.239,23.981-22.456,31.149-36.641c7.167-14.183,10.75-30.141,10.75-47.871c0-20.094-3.953-37.426-11.853-52.007   c-7.908-14.572-18.383-26.594-31.426-36.05c-13.05-9.457-27.754-16.447-44.105-20.981c-16.36-4.525-32.805-6.796-49.344-6.796   c-19.847,0-37.955,2.761-54.305,8.272c-16.358,5.523-30.598,13.797-42.728,24.822c-12.129,11.037-21.692,24.823-28.669,41.371   c-6.987,16.548-10.665,35.664-11.026,57.327h87.661c0.732-16.548,4.962-30.437,12.681-41.665   c7.718-11.229,19.847-16.843,36.386-16.843c13.964,0,25.542,4.136,34.734,12.411c9.183,8.273,13.783,20.297,13.783,36.05   c0,15.764-4.505,28.276-13.508,37.529c-8.211,8.44-18.633,13.016-31.263,13.767h-31.987v0.021   c-18.568,0.45-33.486,15.631-33.486,34.31c0,18.678,14.917,33.861,33.486,34.313v0.021h3.432v0.012h24.81   c8.081,0,15.8,1.089,23.157,3.253c7.348,2.168,13.869,5.52,19.573,10.043c5.693,4.536,10.198,10.25,13.506,17.141   c3.308,6.898,4.962,15.068,4.962,24.526c0,9.854-1.654,18.226-4.962,25.117c-3.309,6.898-7.813,12.513-13.506,16.843   c-5.704,4.341-12.225,7.491-19.573,9.454c-7.357,1.978-15.076,2.957-23.157,2.957c-7.718,0-15.256-1.08-22.604-3.25   c-7.356-2.16-13.877-5.41-19.572-9.752c-5.703-4.33-10.294-9.844-13.783-16.547c-3.497-6.696-5.427-14.572-5.789-23.641h-87.661   c0.362,22.071,4.867,41.074,13.507,57.03c8.632,15.957,20.029,29.061,34.183,39.301c14.145,10.254,30.047,17.833,47.689,22.755   c17.644,4.924,35.647,7.389,54.03,7.389c18.745,0,37.025-2.363,54.857-7.092c17.824-4.728,33.718-12.209,47.69-22.459   c13.963-10.24,25.267-23.344,33.906-39.304c8.632-15.955,12.956-35.356,12.956-58.211   C519.598,1104.813,514.912,1086.197,505.54,1070.237z"></path>		<g display="inline">			<g id="DNA_4_">				<g>					<path fill="#54DE62" d="M616.646,958.58h55.588c7.179,0,12.995-5.819,12.995-12.996c0-7.176-5.816-12.993-12.995-12.993      h-68.854L616.646,958.58z"></path>					<path fill="#00B9F2" d="M745.21,1188.115c0-6.699,5.066-12.215,11.583-12.916h87.342c0.149,0.351,0.29,0.701,0.43,1.051      c3.104,7.8,5.797,16.069,8.18,24.8h-95.74C750.387,1200.447,745.21,1194.893,745.21,1188.115z"></path>					<path fill="#54DE62" d="M764.496,1136.094c0-7.111-5.713-12.876-12.797-12.982v-0.01h-81.291v25.988h81.291v-0.012      C758.783,1148.973,764.496,1143.204,764.496,1136.094z"></path>					<path fill="#00B9F2" d="M710.761,932.739L710.761,932.739c-7.174,0-12.993,5.008-12.993,12.994      c0,7.177,5.819,12.994,12.993,12.994l0,0h79.973v-25.988H710.761z"></path>					<g>						<g>							<circle fill="#1BB3F7" cx="634.744" cy="998.186" r="12.994"></circle>							<path fill="#54DE62" d="M673.337,985.192v0.002c-7.146,0.035-12.929,5.838-12.929,12.991c0,7.154,5.783,12.956,12.929,12.992        v0.002h58.318v-25.988H673.337z"></path>						</g>					</g>					<g display="none">						<g display="inline">							<circle fill="#54DE62" cx="813.77" cy="1083.281" r="12.994"></circle>							<path fill="#00B9F2" d="M775.178,1096.277v-0.004c7.146-0.035,12.929-5.837,12.929-12.992        c0-7.152-5.783-12.954-12.929-12.991v-0.002h-58.319v25.989H775.178z"></path>						</g>					</g>					<g>						<g>							<path fill="#54DE62" d="M814.002,1096.563v-0.004c7.146-0.035,12.929-5.837,12.929-12.992c0-7.152-5.784-12.953-12.929-12.99        v-0.003H711.631v25.989H814.002z"></path>						</g>					</g>					<path fill="#00B9F2" d="M823.45,1123.221h-33.019c-7.177,0-12.994,5.817-12.994,12.994s5.817,12.994,12.994,12.994h46.285      L823.45,1123.221z"></path>				</g>			</g>			<g id="V_-_OOO_3_">				<g>					<path fill="#1BB3F7" d="M873.368,1175.839c-0.079-0.199-0.149-0.398-0.229-0.609h-0.04c0.14,0.311,0.27,0.641,0.4,0.962      C873.458,1176.07,873.408,1175.961,873.368,1175.839z M855.768,1213.463c-0.091-1.48-0.44-2.901-0.991-4.214      C855.118,1210.641,855.448,1212.041,855.768,1213.463z"></path>				</g>				<g>					<g>						<path fill="#FFFFFF" d="M855.768,1213.463c-0.32-1.422-0.65-2.822-0.991-4.214       C855.328,1210.562,855.677,1211.982,855.768,1213.463z"></path>					</g>				</g>				<g>					<path fill="#FFFFFF" d="M587.299,880.72c-2.243-8.249-4.205-16.919-5.947-25.99L587.299,880.72z"></path>				</g>				<path fill="#54DE62" d="M805.971,828.761H548.204c0.932,6.297,1.933,12.414,3.024,18.371     c4.035,21.995,9.24,41.598,15.608,58.828c0.08,0.2,0.15,0.4,0.23,0.611h213.796v1.982     C793.235,888.109,805.95,859.596,805.971,828.761z M700.43,880.71v0.01l-113.13,0c-2.243-8.249-4.205-16.919-5.947-25.99H700.43     v0.01c7.077,0.1,12.794,5.876,12.794,12.985C713.224,874.833,707.507,880.6,700.43,880.71z M738.823,880.721v-0.01     c-7.148-0.03-12.935-5.836-12.935-12.985c0-7.158,5.787-12.955,12.935-12.995h64.163c-1.952,9.121-4.795,17.841-8.118,25.99     H738.823z"></path>				<path fill="#00B9F2" d="M888.719,1234.669c-0.25-1.373-0.511-2.733-0.771-4.097c-0.521-2.683-1.051-5.324-1.602-7.929     c-1.942-9.149-4.095-17.86-6.478-26.12c-0.221-0.771-0.45-1.551-0.681-2.312c-1.842-6.237-3.814-12.215-5.917-17.931v-0.01     c-0.01-0.031-0.02-0.051-0.029-0.08c-0.132-0.321-0.261-0.651-0.401-0.962H659.084v-1.983     c-4.955,8.18-9.961,17.661-14.186,28.063h159.162v0.011c7.149,0.028,12.935,5.837,12.935,12.983     c0,7.158-5.786,12.956-12.935,12.995H636.809c-1.782,8.301-2.823,16.93-2.833,25.74h257.766     C890.812,1246.741,889.811,1240.625,888.719,1234.669z M842.546,1227.299c-7.179,0-12.995-5.817-12.995-12.995     c0-7.167,5.816-12.983,12.995-12.983c5.376,0,9.981,3.254,11.964,7.897c0,0.012,0,0.021,0.01,0.031     c0.551,1.313,0.9,2.733,0.991,4.214c0.02,0.281,0.029,0.561,0.029,0.841C855.541,1221.481,849.724,1227.299,842.546,1227.299z"></path>				<path fill="#54DE62" d="M855.768,1213.463c-0.32-1.422-0.65-2.822-0.991-4.214     C855.328,1210.562,855.677,1211.982,855.768,1213.463z"></path>			</g>			<g id="OVERLAY_3_" opacity="0.8">				<g>					<linearGradient id="SVGID_7_" gradientUnits="userSpaceOnUse" x1="854.7769" y1="1194.3457" x2="873.4985" y2="1194.3457">						<stop offset="0" style="stop-color:#071A2B;stop-opacity:0"></stop>						<stop offset="1" style="stop-color:#071A2B"></stop>					</linearGradient>					<path fill="url(#SVGID_7_)" d="M873.368,1175.839c-0.079-0.199-0.149-0.398-0.229-0.609h-0.04c0.14,0.311,0.27,0.641,0.4,0.962      C873.458,1176.07,873.408,1175.961,873.368,1175.839z M855.768,1213.463c-0.091-1.48-0.44-2.901-0.991-4.214      C855.118,1210.641,855.448,1212.041,855.768,1213.463z"></path>				</g>				<g>					<g>						<linearGradient id="SVGID_8_" gradientUnits="userSpaceOnUse" x1="854.7769" y1="1211.3555" x2="855.7681" y2="1211.3555">							<stop offset="0" style="stop-color:#071A2B;stop-opacity:0"></stop>							<stop offset="1" style="stop-color:#071A2B"></stop>						</linearGradient>						<path fill="url(#SVGID_8_)" d="M855.768,1213.463c-0.32-1.422-0.65-2.822-0.991-4.214       C855.328,1210.562,855.677,1211.982,855.768,1213.463z"></path>					</g>				</g>				<g>					<linearGradient id="SVGID_9_" gradientUnits="userSpaceOnUse" x1="581.3521" y1="867.7256" x2="587.2993" y2="867.7256">						<stop offset="0" style="stop-color:#071A2B;stop-opacity:0"></stop>						<stop offset="1" style="stop-color:#071A2B"></stop>					</linearGradient>					<path fill="url(#SVGID_9_)" d="M587.299,880.72c-2.243-8.249-4.205-16.919-5.947-25.99L587.299,880.72z"></path>				</g>				<linearGradient id="SVGID_10_" gradientUnits="userSpaceOnUse" x1="548.2036" y1="868.6567" x2="805.9712" y2="868.6567">					<stop offset="0.2" style="stop-color:#071A2B;stop-opacity:0"></stop>					<stop offset="1" style="stop-color:#071A2B"></stop>				</linearGradient>				<path fill="url(#SVGID_10_)" d="M805.971,828.761H548.204c0.932,6.297,1.933,12.414,3.024,18.371     c4.035,21.995,9.24,41.598,15.608,58.828c0.08,0.2,0.15,0.4,0.23,0.611h213.796v1.982     C793.235,888.109,805.95,859.596,805.971,828.761z M700.43,880.71v0.01l-113.13,0c-2.243-8.249-4.205-16.919-5.947-25.99H700.43     v0.01c7.077,0.1,12.794,5.876,12.794,12.985C713.224,874.833,707.507,880.6,700.43,880.71z M738.823,880.721v-0.01     c-7.148-0.03-12.935-5.836-12.935-12.985c0-7.158,5.787-12.955,12.935-12.995h64.163c-1.952,9.121-4.795,17.841-8.118,25.99     H738.823z"></path>				<linearGradient id="SVGID_11_" gradientUnits="userSpaceOnUse" x1="633.9761" y1="1213.1426" x2="891.7417" y2="1213.1426">					<stop offset="0" style="stop-color:#071A2B"></stop>					<stop offset="0.8" style="stop-color:#071A2B;stop-opacity:0"></stop>				</linearGradient>				<path fill="url(#SVGID_11_)" d="M888.719,1234.669c-0.25-1.373-0.511-2.733-0.771-4.097c-0.521-2.683-1.051-5.324-1.602-7.929     c-1.942-9.149-4.095-17.86-6.478-26.12c-0.221-0.771-0.45-1.551-0.681-2.312c-1.842-6.237-3.814-12.215-5.917-17.931v-0.01     c-0.01-0.031-0.02-0.051-0.029-0.08c-0.132-0.321-0.261-0.651-0.401-0.962H659.084v-1.983     c-4.955,8.18-9.961,17.661-14.186,28.063h159.162v0.011c7.149,0.028,12.935,5.837,12.935,12.983     c0,7.158-5.786,12.956-12.935,12.995H636.809c-1.782,8.301-2.823,16.93-2.833,25.74h257.766     C890.812,1246.741,889.811,1240.625,888.719,1234.669z M842.546,1227.299c-7.179,0-12.995-5.817-12.995-12.995     c0-7.167,5.816-12.983,12.995-12.983c5.376,0,9.981,3.254,11.964,7.897c0,0.012,0,0.021,0.01,0.031     c0.551,1.313,0.9,2.733,0.991,4.214c0.02,0.281,0.029,0.561,0.029,0.841C855.541,1221.481,849.724,1227.299,842.546,1227.299z"></path>				<linearGradient id="SVGID_12_" gradientUnits="userSpaceOnUse" x1="854.7769" y1="1211.3555" x2="855.7681" y2="1211.3555">					<stop offset="0" style="stop-color:#071A2B;stop-opacity:0"></stop>					<stop offset="1" style="stop-color:#071A2B"></stop>				</linearGradient>				<path fill="url(#SVGID_12_)" d="M855.768,1213.463c-0.32-1.422-0.65-2.822-0.991-4.214     C855.328,1210.562,855.677,1211.982,855.768,1213.463z"></path>			</g>			<linearGradient id="Z_CURVE_8_" gradientUnits="userSpaceOnUse" x1="880.6768" y1="880.1694" x2="584.4839" y2="1176.3623">				<stop offset="0" style="stop-color:#54DE62"></stop>				<stop offset="0.5" style="stop-color:#37C8AD"></stop>				<stop offset="1" style="stop-color:#1BB3F7"></stop>			</linearGradient>			<path id="Z_CURVE_5_" fill="url(#Z_CURVE_8_)" d="M891.94,828.761c-4.255,29.233-9.741,54.823-18.462,76.758    c-8.72,21.925-17.47,42.028-30.245,60.31c-12.795,18.261-27.511,35.821-44.18,52.681c-7.208,7.297-14.696,14.835-22.496,22.636    h-0.201c-4.154,4.204-8.37,8.469-12.774,12.864c-8.521,8.551-18.211,18.223-29.054,28.994    c-10.853,10.771-15.648,15.657-26.3,27.241c-10.653,11.593-23.177,22.997-31.938,35.39    c-8.098,11.455-14.646,22.426-19.912,32.668c-0.03,0.051-0.051,0.1-0.081,0.15c-4.186,8.109-7.579,15.759-10.332,22.856    c-3.825,9.842-6.409,18.603-8.17,25.989c-2.151,9.052-3.053,16.038-3.423,20.424c0,0.029-0.01,0.07-0.01,0.101    c-0.29,3.374-0.259,5.185-0.259,5.185h-86.13c4.255-29.232,9.741-54.822,18.471-76.758c8.711-21.924,21.464-42.027,34.25-60.299    c12.784-18.271,27.501-35.831,44.171-52.69c7.207-7.298,14.706-14.837,22.496-22.636h0.201    c4.153-4.195,8.369-8.471,12.774-12.866c8.52-8.549,18.211-18.22,29.053-28.992c10.853-10.773,15.649-15.648,26.301-27.241    c10.662-11.594,19.172-22.997,27.933-35.391c6.777-9.591,12.464-18.832,17.24-27.602c5.425-9.952,9.671-19.282,12.994-27.812    c3.825-9.832,6.438-18.591,8.21-25.99c3.895-16.278,3.754-25.97,3.754-25.97H891.94z"></path>			<g id="helix_sides_3_">				<path fill="#54DE62" d="M595.909,906.57h-28.843c-0.08-0.21-0.15-0.411-0.23-0.611c-6.368-17.23-11.573-36.833-15.608-58.828     c-1.091-5.957-2.092-12.074-3.024-18.371h28.804c1.311,9,2.743,17.66,4.345,25.97c1.743,9.07,3.704,17.741,5.947,25.99     c2.383,8.73,5.075,17,8.18,24.799C595.618,905.869,595.758,906.22,595.909,906.57z"></path>				<path fill="#54DE62" d="M622.82,958.58h-29.033c-10.652-16.309-19.773-33.999-27.342-53.061     c-8.73-21.935-14.216-47.525-18.471-76.758h0.23c0.932,6.297,1.933,12.414,3.024,18.371c4.035,21.995,9.24,41.598,15.608,58.828     c0.08,0.2,0.15,0.4,0.23,0.611h28.843C603.387,925.231,612.369,942.572,622.82,958.58z"></path>				<path fill="#00B9F2" d="M892,1253.039h-29.033c-1.292-8.92-2.713-17.501-4.295-25.74c-1.742-9.08-3.693-17.739-5.937-25.989     c-2.394-8.811-5.106-17.149-8.24-25.028c-0.14-0.352-0.279-0.702-0.43-1.052h29.033c0.15,0.34,0.29,0.689,0.43,1.042v0.01     c6.298,17.119,11.444,36.581,15.448,58.388C890.068,1240.625,891.069,1246.741,892,1253.039z"></path>				<path fill="#00B9F2" d="M846.187,1123.221c10.451,16.008,19.433,33.346,26.911,52.009h-29.033     c-7.479-18.663-16.46-36.001-26.911-52.009H846.187z"></path>			</g>		</g>	</g>	<g id="SPACING" display="none" opacity="0.4">		<polygon display="inline" fill="#73BAF0" points="521.232,1370.572 521.234,1370.572 547.194,1370.572 547.191,1370.572    547.191,700.106 547.182,700.106 521.243,700.106 521.233,700.106   "></polygon>		<polygon display="inline" fill="#73BAF0" points="892.232,1370.572 892.234,1370.572 918.194,1370.572 918.191,1370.572    918.191,700.106 918.182,700.106 892.243,700.106 892.233,700.106   "></polygon>		<polygon display="inline" fill="#73BAF0" points="917.232,1370.572 917.234,1370.572 943.194,1370.572 943.191,1370.572    943.191,700.106 943.182,700.106 917.243,700.106 917.233,700.106   "></polygon>		<polygon display="inline" fill="#73BAF0" points="1265.232,1370.572 1265.234,1370.572 1291.195,1370.572 1291.191,1370.572    1291.191,700.106 1291.181,700.106 1265.243,700.106 1265.233,700.106   "></polygon>		<polygon display="inline" fill="#73BAF0" points="1290.232,1370.572 1290.234,1370.572 1316.195,1370.572 1316.191,1370.572    1316.191,700.106 1316.181,700.106 1290.243,700.106 1290.233,700.106   "></polygon>		<polygon display="inline" fill="#73BAF0" points="1400.232,1370.572 1400.234,1370.572 1426.195,1370.572 1426.191,1370.572    1426.191,700.106 1426.181,700.106 1400.243,700.106 1400.233,700.106   "></polygon>		<polygon display="inline" fill="#73BAF0" points="1425.232,1370.572 1425.234,1370.572 1451.195,1370.572 1451.191,1370.572    1451.191,700.106 1451.181,700.106 1425.243,700.106 1425.233,700.106   "></polygon>	</g></g><g id="GRADIENT_LOGO" display="none">	<g display="inline">		<g id="V_-_2_4_" display="none">			<path id="Z_-_TOP_4_" display="inline" fill="#54DE62" d="M1514.033,616.619c-0.02,17.297-2.083,34.204-5.604,50.47    c-3.813,17.724-9.341,34.67-15.817,50.508c-8.153,20.041-17.822,38.309-27.376,54.089v-3.853H1105.8    c-0.293-0.681-0.564-1.362-0.836-2.043c-6.033-15.156-11.266-31.227-15.896-48.193l403.366,0    c7.433-19.106,12.512-36.13,15.954-50.508l-430.879,0c-3.112-16.148-5.896-32.978-8.443-50.469H1514.033z"></path>			<path display="inline" fill="#54DE62" d="M1624.933,1441.097h-444.966c0.02-17.294,2.083-34.204,5.604-50.469    c3.813-17.686,9.319-34.592,15.78-50.393c0-0.038,0.019-0.075,0.037-0.114c7.53-18.506,16.345-35.488,25.178-50.392    c0.739-1.247,1.459-2.493,2.198-3.698v3.854h120.357c5.875,0.661,11.128,3.325,15.078,7.277    c4.553,4.571,7.354,10.856,7.354,17.822c0,13.133-10.019,23.891-22.821,25.137h-147.169c-0.019,0.039-0.037,0.076-0.037,0.114    c-7.414,19.069-12.473,36.056-15.915,50.393h430.879C1619.601,1406.778,1622.383,1423.605,1624.933,1441.097z"></path>			<g display="inline">				<g>					<g>						<g>							<path fill="#54DE62" d="M1371.553,1314.984c0,13.133-10.019,23.891-22.821,25.137c-0.76,0.076-1.537,0.114-2.316,0.114        h-145.064c0-0.038,0.019-0.075,0.037-0.114c7.53-18.506,16.345-35.488,25.178-50.392h119.85c0.914,0,1.809,0.057,2.706,0.155        c5.875,0.661,11.128,3.325,15.078,7.277C1368.752,1301.733,1371.553,1308.019,1371.553,1314.984z"></path>						</g>					</g>				</g>				<g>					<g>						<path fill="#00B9F2" d="M1446.459,1314.984c0,13.171-10.059,23.967-22.918,25.137c-0.779,0.076-1.558,0.114-2.335,0.114       c-0.779,0-1.557-0.038-2.335-0.114c-12.861-1.17-22.92-11.966-22.92-25.137c0-13.02,9.846-23.739,22.511-25.1       c0.914-0.099,1.81-0.155,2.744-0.155c0.933,0,1.828,0.057,2.743,0.155C1436.616,1291.245,1446.459,1301.965,1446.459,1314.984       z"></path>					</g>				</g>				<g display="none">					<g display="inline">						<g>							<path fill="#FFFFFF" d="M1508.233,667.089c-3.792,17.724-9.319,34.67-15.777,50.508h-108.919v-0.019        c-13.894-0.059-25.138-11.343-25.138-25.235c0-13.911,11.244-25.176,25.138-25.254H1508.233z"></path>						</g>					</g>					<path display="inline" fill="#FFFFFF" d="M1308.915,667.104v-0.02h-48.94h-109.039h-29.484v0.004h-47.911      c1.089,8.62,2.411,17.083,3.948,25.352c1.693,9.786,3.542,18.016,5.469,25.156l185.748,0v-0.006h40.21v-0.019      c13.766-0.208,24.872-11.417,24.872-25.235C1333.787,678.52,1322.68,667.31,1308.915,667.104z"></path>				</g>			</g>		</g>		<path id="_x33__3_" fill="#1BB3F7" d="M930.179,1085.902c-18.215-31.009-44.464-56.078-78.75-75.227v-4.594   c26.416-19.901,46.606-43.643,60.535-71.208c13.929-27.563,20.893-58.576,20.893-93.032c0-39.049-7.684-72.733-23.036-101.07   c-15.367-28.319-35.724-51.684-61.072-70.06c-25.361-18.378-53.938-31.963-85.714-40.774   c-31.793-8.794-63.752-13.208-95.895-13.208c-38.57,0-73.761,5.366-105.535,16.078c-31.791,10.732-59.465,26.813-83.037,48.239   c-23.572,21.448-42.156,48.239-55.714,80.398c-13.578,32.16-20.726,69.308-21.429,111.409h170.358   c1.423-32.16,9.643-59.15,24.643-80.971c14.999-21.822,38.571-32.732,70.713-32.732c27.138,0,49.638,8.038,67.502,24.118   c17.845,16.079,26.785,39.445,26.785,70.059c0,30.636-8.755,54.952-26.251,72.934c-15.957,16.403-36.211,25.296-60.757,26.755   h-62.164v0.04c-36.085,0.874-65.076,30.378-65.076,66.677c0,36.298,28.99,65.806,65.076,66.684v0.042h6.669v0.022h48.215   c15.704,0,30.705,2.116,45.002,6.323c14.281,4.214,26.952,10.728,38.037,19.517c11.065,8.816,19.819,19.92,26.249,33.312   c6.43,13.406,9.643,29.283,9.643,47.664c0,19.148-3.213,35.42-9.643,48.812c-6.43,13.407-15.183,24.317-26.249,32.733   c-11.085,8.437-23.756,14.559-38.037,18.374c-14.297,3.842-29.298,5.745-45.002,5.745c-14.999,0-29.648-2.098-43.929-6.315   c-14.296-4.199-26.969-10.515-38.037-18.951c-11.083-8.417-20.005-19.133-26.785-32.159c-6.796-13.012-10.547-28.318-11.25-45.943   H376.781c0.703,42.896,9.458,79.824,26.249,110.833c16.775,31.012,38.924,56.476,66.431,76.377   c27.488,19.928,58.392,34.656,92.678,44.222c34.288,9.568,69.277,14.359,105.001,14.359c36.429,0,71.954-4.594,106.608-13.782   c34.638-9.188,65.526-23.728,92.68-43.647c27.136-19.9,49.103-45.365,65.893-76.381c16.775-31.008,25.179-68.713,25.179-113.127   C957.5,1153.095,948.393,1116.918,930.179,1085.902z"></path>		<linearGradient id="_x33__19_" gradientUnits="userSpaceOnUse" x1="667.1401" y1="1441.3809" x2="667.1401" y2="616.73">			<stop offset="0" style="stop-color:#071A2B"></stop>			<stop offset="0.8" style="stop-color:#071A2B;stop-opacity:0"></stop>		</linearGradient>		<path id="_x33__4_" fill="url(#_x33__19_)" d="M930.179,1085.902c-18.215-31.009-44.464-56.078-78.75-75.227v-4.594   c26.416-19.901,46.606-43.643,60.535-71.208c13.929-27.563,20.893-58.576,20.893-93.032c0-39.049-7.684-72.733-23.036-101.07   c-15.367-28.319-35.724-51.684-61.072-70.06c-25.361-18.378-53.938-31.963-85.714-40.774   c-31.793-8.794-63.752-13.208-95.895-13.208c-38.57,0-73.761,5.366-105.535,16.078c-31.791,10.732-59.465,26.813-83.037,48.239   c-23.572,21.448-42.156,48.239-55.714,80.398c-13.578,32.16-20.726,69.308-21.429,111.409h170.358   c1.423-32.16,9.643-59.15,24.643-80.971c14.999-21.822,38.571-32.732,70.713-32.732c27.138,0,49.638,8.038,67.502,24.118   c17.845,16.079,26.785,39.445,26.785,70.059c0,30.636-8.755,54.952-26.251,72.934c-15.957,16.403-36.211,25.296-60.757,26.755   h-62.164v0.04c-36.085,0.874-65.076,30.378-65.076,66.677c0,36.298,28.99,65.806,65.076,66.684v0.042h6.669v0.022h48.215   c15.704,0,30.705,2.116,45.002,6.323c14.281,4.214,26.952,10.728,38.037,19.517c11.065,8.816,19.819,19.92,26.249,33.312   c6.43,13.406,9.643,29.283,9.643,47.664c0,19.148-3.213,35.42-9.643,48.812c-6.43,13.407-15.183,24.317-26.249,32.733   c-11.085,8.437-23.756,14.559-38.037,18.374c-14.297,3.842-29.298,5.745-45.002,5.745c-14.999,0-29.648-2.098-43.929-6.315   c-14.296-4.199-26.969-10.515-38.037-18.951c-11.083-8.417-20.005-19.133-26.785-32.159c-6.796-13.012-10.547-28.318-11.25-45.943   H376.781c0.703,42.896,9.458,79.824,26.249,110.833c16.775,31.012,38.924,56.476,66.431,76.377   c27.488,19.928,58.392,34.656,92.678,44.222c34.288,9.568,69.277,14.359,105.001,14.359c36.429,0,71.954-4.594,106.608-13.782   c34.638-9.188,65.526-23.728,92.68-43.647c27.136-19.9,49.103-45.365,65.893-76.381c16.775-31.008,25.179-68.713,25.179-113.127   C957.5,1153.095,948.393,1116.918,930.179,1085.902z"></path>		<g>			<g id="DNA_3_">				<g>					<path fill="#54DE62" d="M1146.102,868.908l108.029,0c13.95,0,25.253-11.308,25.253-25.256      c0-13.946-11.303-25.251-25.253-25.251h-133.81L1146.102,868.908z"></path>					<path fill="#00B9F2" d="M1395.952,1314.984c0-13.02,9.846-23.739,22.511-25.1H1588.2c0.291,0.681,0.564,1.36,0.836,2.041      c6.031,15.158,11.266,31.229,15.896,48.195h-186.06C1406.01,1338.951,1395.952,1328.155,1395.952,1314.984z"></path>					<path fill="#54DE62" d="M1433.429,1213.888c0-13.821-11.102-25.023-24.869-25.232v-0.019h-157.979v50.506h157.979v-0.022      C1422.328,1238.915,1433.429,1227.705,1433.429,1213.888z"></path>					<path fill="#00B9F2" d="M1329.003,818.69L1329.003,818.69c-13.942,0.001-25.251,9.733-25.251,25.253      c0,13.947,11.309,25.251,25.251,25.251l0,0h155.419V818.69H1329.003z"></path>					<g>						<g>							<path fill="#1BB3F7" d="M1156.02,945.877c0-13.945,11.307-25.253,25.253-25.253c13.95,0,25.253,11.308,25.253,25.253        c0,13.947-11.303,25.252-25.253,25.252C1167.327,971.13,1156.02,959.825,1156.02,945.877z"></path>							<path fill="#54DE62" d="M1256.273,920.625v0.006c-13.888,0.068-25.126,11.344-25.126,25.247        c0,13.904,11.238,25.178,25.126,25.249v0.004h113.335v-50.505H1256.273z"></path>						</g>					</g>					<g display="none">						<g display="inline">							<path fill="#54DE62" d="M1554.442,1111.252c0,13.946-11.307,25.256-25.253,25.256c-13.95,0-25.254-11.31-25.254-25.256        s11.304-25.251,25.254-25.251C1543.135,1086.001,1554.442,1097.306,1554.442,1111.252z"></path>							<path fill="#00B9F2" d="M1454.191,1136.508v-0.008c13.888-0.068,25.126-11.344,25.126-25.248        c0-13.9-11.238-25.176-25.126-25.247v-0.004h-113.337v50.507H1454.191z"></path>						</g>					</g>					<g>						<g>							<path fill="#54DE62" d="M1529.639,1137.063v-0.008c13.887-0.068,25.126-11.344,25.126-25.248        c0-13.9-11.239-25.175-25.126-25.247v-0.004h-198.944v50.507H1529.639z"></path>						</g>					</g>					<path fill="#00B9F2" d="M1548,1188.868h-64.169c-13.948,0-25.252,11.306-25.252,25.255c0,13.946,11.304,25.252,25.252,25.252      h89.949L1548,1188.868z"></path>				</g>			</g>			<g id="V_-_OOO_4_">				<g>					<path fill="#1BB3F7" d="M1645.01,1291.128c-0.153-0.388-0.29-0.775-0.446-1.187h-0.078c0.272,0.604,0.524,1.247,0.779,1.87      C1645.187,1291.576,1645.088,1291.363,1645.01,1291.128z M1610.808,1364.244c-0.177-2.877-0.856-5.639-1.927-8.188      C1609.542,1358.761,1610.185,1361.481,1610.808,1364.244z"></path>				</g>				<g>					<g>						<path fill="#FFFFFF" d="M1610.808,1364.244c-0.623-2.763-1.266-5.483-1.927-8.188       C1609.952,1358.605,1610.631,1361.367,1610.808,1364.244z"></path>					</g>				</g>				<g>					<path fill="#FFFFFF" d="M1089.069,717.597c-4.359-16.031-8.172-32.881-11.559-50.508L1089.069,717.597z"></path>				</g>				<path fill="#54DE62" d="M1514.033,616.619H1013.09c1.811,12.238,3.757,24.125,5.877,35.702     c7.841,42.745,17.957,80.841,30.332,114.325c0.155,0.39,0.292,0.778,0.448,1.188h415.488v3.853     C1489.283,731.956,1513.993,676.544,1514.033,616.619z M1308.924,717.578v0.019l-219.855,0     c-4.359-16.031-8.172-32.881-11.559-50.508l231.414,0v0.02c13.754,0.194,24.864,11.42,24.864,25.234     S1322.678,717.363,1308.924,717.578z M1383.539,717.597v-0.019c-13.892-0.059-25.138-11.343-25.138-25.235     c0-13.911,11.246-25.176,25.138-25.254h124.694c-3.794,17.724-9.319,34.67-15.777,50.508H1383.539z"></path>				<path fill="#00B9F2" d="M1674.844,1405.456c-0.486-2.668-0.993-5.313-1.499-7.961c-1.011-5.214-2.042-10.348-3.112-15.409     c-3.775-17.781-7.957-34.71-12.589-50.762c-0.428-1.497-0.874-3.014-1.323-4.491c-3.579-12.122-7.412-23.739-11.499-34.847     v-0.019c-0.019-0.062-0.037-0.099-0.057-0.156c-0.255-0.623-0.507-1.266-0.779-1.87h-415.41v-3.853     c-9.631,15.896-19.359,34.322-27.569,54.538h309.314v0.02c13.894,0.057,25.138,11.343,25.138,25.232     c0,13.912-11.244,25.179-25.138,25.255h-325.035c-3.464,16.131-5.487,32.9-5.506,50.023h500.939     C1678.911,1428.918,1676.965,1417.031,1674.844,1405.456z M1585.112,1391.134c-13.95,0-25.255-11.306-25.255-25.255     c0-13.928,11.305-25.232,25.255-25.232c10.448,0,19.397,6.323,23.251,15.348c0,0.023,0,0.042,0.019,0.062     c1.07,2.55,1.75,5.312,1.927,8.188c0.038,0.547,0.057,1.091,0.057,1.635C1610.365,1379.828,1599.062,1391.134,1585.112,1391.134     z"></path>				<path fill="#54DE62" d="M1610.808,1364.244c-0.623-2.763-1.266-5.483-1.927-8.188     C1609.952,1358.605,1610.631,1361.367,1610.808,1364.244z"></path>			</g>			<g id="OVERLAY" opacity="0.8">				<g>					<linearGradient id="SVGID_13_" gradientUnits="userSpaceOnUse" x1="1608.8813" y1="1327.0928" x2="1645.2651" y2="1327.0928">						<stop offset="0" style="stop-color:#071A2B;stop-opacity:0"></stop>						<stop offset="1" style="stop-color:#071A2B"></stop>					</linearGradient>					<path fill="url(#SVGID_13_)" d="M1645.01,1291.128c-0.153-0.388-0.29-0.775-0.446-1.187h-0.078      c0.272,0.604,0.524,1.247,0.779,1.87C1645.187,1291.576,1645.088,1291.363,1645.01,1291.128z M1610.808,1364.244      c-0.177-2.877-0.856-5.639-1.927-8.188C1609.542,1358.761,1610.185,1361.481,1610.808,1364.244z"></path>				</g>				<g>					<g>						<linearGradient id="SVGID_14_" gradientUnits="userSpaceOnUse" x1="1608.8813" y1="1360.1504" x2="1610.8081" y2="1360.1504">							<stop offset="0" style="stop-color:#071A2B;stop-opacity:0"></stop>							<stop offset="1" style="stop-color:#071A2B"></stop>						</linearGradient>						<path fill="url(#SVGID_14_)" d="M1610.808,1364.244c-0.623-2.763-1.266-5.483-1.927-8.188       C1609.952,1358.605,1610.631,1361.367,1610.808,1364.244z"></path>					</g>				</g>				<g>					<linearGradient id="SVGID_15_" gradientUnits="userSpaceOnUse" x1="1077.5103" y1="692.3428" x2="1089.0688" y2="692.3428">						<stop offset="0" style="stop-color:#071A2B;stop-opacity:0"></stop>						<stop offset="1" style="stop-color:#071A2B"></stop>					</linearGradient>					<path fill="url(#SVGID_15_)" d="M1089.069,717.597c-4.359-16.031-8.172-32.881-11.559-50.508L1089.069,717.597z"></path>				</g>				<linearGradient id="SVGID_16_" gradientUnits="userSpaceOnUse" x1="1013.0903" y1="694.1523" x2="1514.0327" y2="694.1523">					<stop offset="0.2" style="stop-color:#071A2B;stop-opacity:0"></stop>					<stop offset="1" style="stop-color:#071A2B"></stop>				</linearGradient>				<path fill="url(#SVGID_16_)" d="M1514.033,616.619H1013.09c1.811,12.238,3.757,24.125,5.877,35.702     c7.841,42.745,17.957,80.841,30.332,114.325c0.155,0.39,0.292,0.778,0.448,1.188h415.488v3.853     C1489.283,731.956,1513.993,676.544,1514.033,616.619z M1308.924,717.578v0.019l-219.855,0     c-4.359-16.031-8.172-32.881-11.559-50.508l231.414,0v0.02c13.754,0.194,24.864,11.42,24.864,25.234     S1322.678,717.363,1308.924,717.578z M1383.539,717.597v-0.019c-13.892-0.059-25.138-11.343-25.138-25.235     c0-13.911,11.246-25.176,25.138-25.254h124.694c-3.794,17.724-9.319,34.67-15.777,50.508H1383.539z"></path>				<linearGradient id="SVGID_17_" gradientUnits="userSpaceOnUse" x1="1179.7798" y1="1363.623" x2="1680.7192" y2="1363.623">					<stop offset="0" style="stop-color:#071A2B"></stop>					<stop offset="0.8" style="stop-color:#071A2B;stop-opacity:0"></stop>				</linearGradient>				<path fill="url(#SVGID_17_)" d="M1674.844,1405.456c-0.486-2.668-0.993-5.313-1.499-7.961     c-1.011-5.214-2.042-10.348-3.112-15.409c-3.775-17.781-7.957-34.71-12.589-50.762c-0.428-1.497-0.874-3.014-1.323-4.491     c-3.579-12.122-7.412-23.739-11.499-34.847v-0.019c-0.019-0.062-0.037-0.099-0.057-0.156c-0.255-0.623-0.507-1.266-0.779-1.87     h-415.41v-3.853c-9.631,15.896-19.359,34.322-27.569,54.538h309.314v0.02c13.894,0.057,25.138,11.343,25.138,25.232     c0,13.912-11.244,25.179-25.138,25.255h-325.035c-3.464,16.131-5.487,32.9-5.506,50.023h500.939     C1678.911,1428.918,1676.965,1417.031,1674.844,1405.456z M1585.112,1391.134c-13.95,0-25.255-11.306-25.255-25.255     c0-13.928,11.305-25.232,25.255-25.232c10.448,0,19.397,6.323,23.251,15.348c0,0.023,0,0.042,0.019,0.062     c1.07,2.55,1.75,5.312,1.927,8.188c0.038,0.547,0.057,1.091,0.057,1.635C1610.365,1379.828,1599.062,1391.134,1585.112,1391.134     z"></path>				<linearGradient id="SVGID_18_" gradientUnits="userSpaceOnUse" x1="1608.8813" y1="1360.1504" x2="1610.8081" y2="1360.1504">					<stop offset="0" style="stop-color:#071A2B;stop-opacity:0"></stop>					<stop offset="1" style="stop-color:#071A2B"></stop>				</linearGradient>				<path fill="url(#SVGID_18_)" d="M1610.808,1364.244c-0.623-2.763-1.266-5.483-1.927-8.188     C1609.952,1358.605,1610.631,1361.367,1610.808,1364.244z"></path>			</g>			<linearGradient id="Z_CURVE_9_" gradientUnits="userSpaceOnUse" x1="1659.2153" y1="716.5264" x2="1083.5973" y2="1292.1444">				<stop offset="0" style="stop-color:#54DE62"></stop>				<stop offset="0.5" style="stop-color:#37C8AD"></stop>				<stop offset="1" style="stop-color:#1BB3F7"></stop>			</linearGradient>			<path id="Z_CURVE_4_" fill="url(#Z_CURVE_9_)" d="M1681.103,616.619c-8.269,56.813-18.932,106.542-35.878,149.171    c-16.946,42.609-33.951,81.678-58.777,117.205c-24.865,35.488-53.465,69.615-85.86,102.38    c-14.009,14.182-28.561,28.831-43.718,43.99h-0.39c-8.074,8.17-16.266,16.457-24.825,25    c-16.559,16.617-35.392,35.413-56.463,56.348c-21.091,20.934-30.41,30.427-51.111,52.938    c-20.702,22.53-45.042,44.692-62.066,68.776c-15.739,22.262-28.464,43.583-38.697,63.488c-0.059,0.099-0.099,0.193-0.156,0.292    c-8.134,15.759-14.729,30.625-20.079,44.419c-7.433,19.126-12.453,36.15-15.877,50.507c-4.182,17.591-5.934,31.168-6.653,39.691    c0,0.057-0.02,0.137-0.02,0.194c-0.564,6.559-0.505,10.077-0.505,10.077h-167.383c8.269-56.811,18.93-106.542,35.896-149.171    c16.928-42.606,41.714-81.675,66.561-117.183c24.845-35.508,53.445-69.636,85.841-102.399    c14.007-14.182,28.58-28.835,43.718-43.99h0.39c8.073-8.154,16.265-16.462,24.826-25.004    c16.557-16.614,35.392-35.408,56.461-56.343c21.092-20.936,30.412-30.41,51.112-52.94c20.722-22.531,37.26-44.691,54.284-68.778    c13.171-18.639,24.222-36.597,33.503-53.641c10.545-19.339,18.795-37.473,25.253-54.05c7.434-19.106,12.512-36.13,15.955-50.508    c7.569-31.636,7.296-50.47,7.296-50.47H1681.103z"></path>			<g id="helix_sides_4_">				<path fill="#54DE62" d="M1105.8,767.833h-56.053c-0.156-0.409-0.293-0.798-0.448-1.188     c-12.375-33.484-22.491-71.58-30.332-114.325c-2.12-11.577-4.066-23.464-5.877-35.702h55.977     c2.548,17.492,5.331,34.321,8.443,50.469c3.387,17.627,7.199,34.477,11.559,50.508c4.63,16.966,9.862,33.037,15.896,48.193     C1105.236,766.471,1105.507,767.152,1105.8,767.833z"></path>				<path fill="#54DE62" d="M1158.098,868.908h-56.423c-20.701-31.694-38.426-66.073-53.135-103.118     c-16.967-42.629-27.628-92.358-35.896-149.171h0.446c1.811,12.238,3.757,24.125,5.877,35.702     c7.841,42.745,17.957,80.841,30.332,114.325c0.155,0.39,0.292,0.778,0.448,1.188h56.053     C1120.333,804.1,1137.788,837.798,1158.098,868.908z"></path>				<path fill="#00B9F2" d="M1681.219,1441.157h-56.423c-2.51-17.336-5.272-34.011-8.347-50.023     c-3.386-17.647-7.179-34.475-11.537-50.507c-4.651-17.123-9.924-33.33-16.014-48.641c-0.271-0.684-0.543-1.364-0.836-2.045     h56.423c0.293,0.662,0.564,1.342,0.836,2.026v0.019c12.238,33.27,22.24,71.092,30.022,113.47     C1677.465,1417.031,1679.411,1428.918,1681.219,1441.157z"></path>				<path fill="#00B9F2" d="M1592.188,1188.868c20.312,31.111,37.765,64.806,52.298,101.073h-56.423     c-14.533-36.268-31.987-69.962-52.298-101.073H1592.188z"></path>			</g>		</g>	</g></g><g id="Layer_8" display="none">	<g display="inline">		<g id="V_-_2_3_" display="none">			<path id="Z_-_TOP_3_" display="inline" fill="#54DE62" d="M1514.033,616.619c-0.02,17.297-2.083,34.204-5.604,50.47    c-3.813,17.724-9.341,34.67-15.817,50.508c-8.153,20.041-17.822,38.309-27.376,54.089v-3.853H1105.8    c-0.293-0.681-0.564-1.362-0.836-2.043c-6.033-15.156-11.266-31.227-15.896-48.193l403.366,0    c7.433-19.106,12.512-36.13,15.954-50.508l-430.879,0c-3.112-16.148-5.896-32.978-8.443-50.469H1514.033z"></path>			<path display="inline" fill="#54DE62" d="M1624.933,1441.097h-444.966c0.02-17.294,2.083-34.204,5.604-50.469    c3.813-17.686,9.319-34.592,15.78-50.393c0-0.038,0.019-0.075,0.037-0.114c7.53-18.506,16.345-35.488,25.178-50.392    c0.739-1.247,1.459-2.493,2.198-3.698v3.854h120.357c5.875,0.661,11.128,3.325,15.078,7.277    c4.553,4.571,7.354,10.856,7.354,17.822c0,13.133-10.019,23.891-22.821,25.137h-147.169c-0.019,0.039-0.037,0.076-0.037,0.114    c-7.414,19.069-12.473,36.056-15.915,50.393h430.879C1619.601,1406.778,1622.383,1423.605,1624.933,1441.097z"></path>			<g display="inline">				<g>					<g>						<g>							<path fill="#54DE62" d="M1371.553,1314.984c0,13.133-10.019,23.891-22.821,25.137c-0.76,0.076-1.537,0.114-2.316,0.114        h-145.064c0-0.038,0.019-0.075,0.037-0.114c7.53-18.506,16.345-35.488,25.178-50.392h119.85c0.914,0,1.809,0.057,2.706,0.155        c5.875,0.661,11.128,3.325,15.078,7.277C1368.752,1301.733,1371.553,1308.019,1371.553,1314.984z"></path>						</g>					</g>				</g>				<g>					<g>						<path fill="#00B9F2" d="M1446.459,1314.984c0,13.171-10.059,23.967-22.918,25.137c-0.779,0.076-1.558,0.114-2.335,0.114       c-0.779,0-1.557-0.038-2.335-0.114c-12.861-1.17-22.92-11.966-22.92-25.137c0-13.02,9.846-23.739,22.511-25.1       c0.914-0.099,1.81-0.155,2.744-0.155c0.933,0,1.828,0.057,2.743,0.155C1436.616,1291.245,1446.459,1301.965,1446.459,1314.984       z"></path>					</g>				</g>				<g display="none">					<g display="inline">						<g>							<path fill="#FFFFFF" d="M1508.233,667.089c-3.792,17.724-9.319,34.67-15.777,50.508h-108.919v-0.019        c-13.894-0.059-25.138-11.343-25.138-25.235c0-13.911,11.244-25.176,25.138-25.254H1508.233z"></path>						</g>					</g>					<path display="inline" fill="#FFFFFF" d="M1308.915,667.104v-0.02h-48.94h-109.039h-29.484v0.004h-47.911      c1.089,8.62,2.411,17.083,3.948,25.352c1.693,9.786,3.542,18.016,5.469,25.156l185.748,0v-0.006h40.21v-0.019      c13.766-0.208,24.872-11.417,24.872-25.235C1333.787,678.52,1322.68,667.31,1308.915,667.104z"></path>				</g>			</g>		</g>		<path id="_x33__12_" fill="#1BB3F7" d="M930.179,1085.902c-18.215-31.009-44.464-56.078-78.75-75.227v-4.594   c26.416-19.901,46.606-43.643,60.535-71.208c13.929-27.563,20.893-58.576,20.893-93.032c0-39.049-7.684-72.733-23.036-101.07   c-15.367-28.319-35.724-51.684-61.072-70.06c-25.361-18.378-53.938-31.963-85.714-40.774   c-31.793-8.794-63.752-13.208-95.895-13.208c-38.57,0-73.761,5.366-105.535,16.078c-31.791,10.732-59.465,26.813-83.037,48.239   c-23.572,21.448-42.156,48.239-55.714,80.398c-13.578,32.16-20.726,69.308-21.429,111.409h170.358   c1.423-32.16,9.643-59.15,24.643-80.971c14.999-21.822,38.571-32.732,70.713-32.732c27.138,0,49.638,8.038,67.502,24.118   c17.845,16.079,26.785,39.445,26.785,70.059c0,30.636-8.755,54.952-26.251,72.934c-15.957,16.403-36.211,25.296-60.757,26.755   h-62.164v0.04c-36.085,0.874-65.076,30.378-65.076,66.677c0,36.298,28.99,65.806,65.076,66.684v0.042h6.669v0.022h48.215   c15.704,0,30.705,2.116,45.002,6.323c14.281,4.214,26.952,10.728,38.037,19.517c11.065,8.816,19.819,19.92,26.249,33.312   c6.43,13.406,9.643,29.283,9.643,47.664c0,19.148-3.213,35.42-9.643,48.812c-6.43,13.407-15.183,24.317-26.249,32.733   c-11.085,8.437-23.756,14.559-38.037,18.374c-14.297,3.842-29.298,5.745-45.002,5.745c-14.999,0-29.648-2.098-43.929-6.315   c-14.296-4.199-26.969-10.515-38.037-18.951c-11.083-8.417-20.005-19.133-26.785-32.159c-6.796-13.012-10.547-28.318-11.25-45.943   H376.781c0.703,42.896,9.458,79.824,26.249,110.833c16.775,31.012,38.924,56.476,66.431,76.377   c27.488,19.928,58.392,34.656,92.678,44.222c34.288,9.568,69.277,14.359,105.001,14.359c36.429,0,71.954-4.594,106.608-13.782   c34.638-9.188,65.526-23.728,92.68-43.647c27.136-19.9,49.103-45.365,65.893-76.381c16.775-31.008,25.179-68.713,25.179-113.127   C957.5,1153.095,948.393,1116.918,930.179,1085.902z"></path>		<linearGradient id="_x33__20_" gradientUnits="userSpaceOnUse" x1="667.1401" y1="1441.3809" x2="667.1401" y2="616.73">			<stop offset="0" style="stop-color:#071A2B"></stop>			<stop offset="0.8" style="stop-color:#071A2B;stop-opacity:0"></stop>		</linearGradient>		<path id="_x33__10_" fill="url(#_x33__20_)" d="M930.179,1085.902c-18.215-31.009-44.464-56.078-78.75-75.227v-4.594   c26.416-19.901,46.606-43.643,60.535-71.208c13.929-27.563,20.893-58.576,20.893-93.032c0-39.049-7.684-72.733-23.036-101.07   c-15.367-28.319-35.724-51.684-61.072-70.06c-25.361-18.378-53.938-31.963-85.714-40.774   c-31.793-8.794-63.752-13.208-95.895-13.208c-38.57,0-73.761,5.366-105.535,16.078c-31.791,10.732-59.465,26.813-83.037,48.239   c-23.572,21.448-42.156,48.239-55.714,80.398c-13.578,32.16-20.726,69.308-21.429,111.409h170.358   c1.423-32.16,9.643-59.15,24.643-80.971c14.999-21.822,38.571-32.732,70.713-32.732c27.138,0,49.638,8.038,67.502,24.118   c17.845,16.079,26.785,39.445,26.785,70.059c0,30.636-8.755,54.952-26.251,72.934c-15.957,16.403-36.211,25.296-60.757,26.755   h-62.164v0.04c-36.085,0.874-65.076,30.378-65.076,66.677c0,36.298,28.99,65.806,65.076,66.684v0.042h6.669v0.022h48.215   c15.704,0,30.705,2.116,45.002,6.323c14.281,4.214,26.952,10.728,38.037,19.517c11.065,8.816,19.819,19.92,26.249,33.312   c6.43,13.406,9.643,29.283,9.643,47.664c0,19.148-3.213,35.42-9.643,48.812c-6.43,13.407-15.183,24.317-26.249,32.733   c-11.085,8.437-23.756,14.559-38.037,18.374c-14.297,3.842-29.298,5.745-45.002,5.745c-14.999,0-29.648-2.098-43.929-6.315   c-14.296-4.199-26.969-10.515-38.037-18.951c-11.083-8.417-20.005-19.133-26.785-32.159c-6.796-13.012-10.547-28.318-11.25-45.943   H376.781c0.703,42.896,9.458,79.824,26.249,110.833c16.775,31.012,38.924,56.476,66.431,76.377   c27.488,19.928,58.392,34.656,92.678,44.222c34.288,9.568,69.277,14.359,105.001,14.359c36.429,0,71.954-4.594,106.608-13.782   c34.638-9.188,65.526-23.728,92.68-43.647c27.136-19.9,49.103-45.365,65.893-76.381c16.775-31.008,25.179-68.713,25.179-113.127   C957.5,1153.095,948.393,1116.918,930.179,1085.902z"></path>		<g>			<g id="DNA_2_">				<g>					<path fill="#54DE62" d="M1146.102,868.908l108.029,0c13.95,0,25.253-11.308,25.253-25.256      c0-13.946-11.303-25.251-25.253-25.251h-133.81L1146.102,868.908z"></path>					<path fill="#00B9F2" d="M1395.952,1314.984c0-13.02,9.846-23.739,22.511-25.1H1588.2c0.291,0.681,0.564,1.36,0.836,2.041      c6.031,15.158,11.266,31.229,15.896,48.195h-186.06C1406.01,1338.951,1395.952,1328.155,1395.952,1314.984z"></path>					<path fill="#54DE62" d="M1433.429,1213.888c0-13.821-11.102-25.023-24.869-25.232v-0.019h-157.979v50.506h157.979v-0.022      C1422.328,1238.915,1433.429,1227.705,1433.429,1213.888z"></path>					<path fill="#00B9F2" d="M1329.003,818.69L1329.003,818.69c-13.942,0.001-25.251,9.733-25.251,25.253      c0,13.947,11.309,25.251,25.251,25.251l0,0h155.419V818.69H1329.003z"></path>					<g>						<g>							<path fill="#1BB3F7" d="M1156.02,945.877c0-13.945,11.307-25.253,25.253-25.253c13.95,0,25.253,11.308,25.253,25.253        c0,13.947-11.303,25.252-25.253,25.252C1167.327,971.13,1156.02,959.825,1156.02,945.877z"></path>							<path fill="#54DE62" d="M1256.273,920.625v0.006c-13.888,0.068-25.126,11.344-25.126,25.247        c0,13.904,11.238,25.178,25.126,25.249v0.004h113.335v-50.505H1256.273z"></path>						</g>					</g>					<g display="none">						<g display="inline">							<path fill="#54DE62" d="M1554.442,1111.252c0,13.946-11.307,25.256-25.253,25.256c-13.95,0-25.254-11.31-25.254-25.256        s11.304-25.251,25.254-25.251C1543.135,1086.001,1554.442,1097.306,1554.442,1111.252z"></path>							<path fill="#00B9F2" d="M1454.191,1136.508v-0.008c13.888-0.068,25.126-11.344,25.126-25.248        c0-13.9-11.238-25.176-25.126-25.247v-0.004h-113.337v50.507H1454.191z"></path>						</g>					</g>					<g>						<g>							<path fill="#54DE62" d="M1529.639,1137.063v-0.008c13.887-0.068,25.126-11.344,25.126-25.248        c0-13.9-11.239-25.175-25.126-25.247v-0.004h-198.944v50.507H1529.639z"></path>						</g>					</g>					<path fill="#00B9F2" d="M1548,1188.868h-64.169c-13.948,0-25.252,11.306-25.252,25.255c0,13.946,11.304,25.252,25.252,25.252      h89.949L1548,1188.868z"></path>				</g>			</g>			<g id="V_-_OOO_2_">				<g>					<path fill="#1BB3F7" d="M1645.01,1291.128c-0.153-0.388-0.29-0.775-0.446-1.187h-0.078c0.272,0.604,0.524,1.247,0.779,1.87      C1645.187,1291.576,1645.088,1291.363,1645.01,1291.128z M1610.808,1364.244c-0.177-2.877-0.856-5.639-1.927-8.188      C1609.542,1358.761,1610.185,1361.481,1610.808,1364.244z"></path>				</g>				<g>					<g>						<path fill="#FFFFFF" d="M1610.808,1364.244c-0.623-2.763-1.266-5.483-1.927-8.188       C1609.952,1358.605,1610.631,1361.367,1610.808,1364.244z"></path>					</g>				</g>				<g>					<path fill="#FFFFFF" d="M1089.069,717.597c-4.359-16.031-8.172-32.881-11.559-50.508L1089.069,717.597z"></path>				</g>				<path fill="#54DE62" d="M1514.033,616.619H1013.09c1.811,12.238,3.757,24.125,5.877,35.702     c7.841,42.745,17.957,80.841,30.332,114.325c0.155,0.39,0.292,0.778,0.448,1.188h415.488v3.853     C1489.283,731.956,1513.993,676.544,1514.033,616.619z M1308.924,717.578v0.019l-219.855,0     c-4.359-16.031-8.172-32.881-11.559-50.508l231.414,0v0.02c13.754,0.194,24.864,11.42,24.864,25.234     S1322.678,717.363,1308.924,717.578z M1383.539,717.597v-0.019c-13.892-0.059-25.138-11.343-25.138-25.235     c0-13.911,11.246-25.176,25.138-25.254h124.694c-3.794,17.724-9.319,34.67-15.777,50.508H1383.539z"></path>				<path fill="#00B9F2" d="M1674.844,1405.456c-0.486-2.668-0.993-5.313-1.499-7.961c-1.011-5.214-2.042-10.348-3.112-15.409     c-3.775-17.781-7.957-34.71-12.589-50.762c-0.428-1.497-0.874-3.014-1.323-4.491c-3.579-12.122-7.412-23.739-11.499-34.847     v-0.019c-0.019-0.062-0.037-0.099-0.057-0.156c-0.255-0.623-0.507-1.266-0.779-1.87h-415.41v-3.853     c-9.631,15.896-19.359,34.322-27.569,54.538h309.314v0.02c13.894,0.057,25.138,11.343,25.138,25.232     c0,13.912-11.244,25.179-25.138,25.255h-325.035c-3.464,16.131-5.487,32.9-5.506,50.023h500.939     C1678.911,1428.918,1676.965,1417.031,1674.844,1405.456z M1585.112,1391.134c-13.95,0-25.255-11.306-25.255-25.255     c0-13.928,11.305-25.232,25.255-25.232c10.448,0,19.397,6.323,23.251,15.348c0,0.023,0,0.042,0.019,0.062     c1.07,2.55,1.75,5.312,1.927,8.188c0.038,0.547,0.057,1.091,0.057,1.635C1610.365,1379.828,1599.062,1391.134,1585.112,1391.134     z"></path>				<path fill="#54DE62" d="M1610.808,1364.244c-0.623-2.763-1.266-5.483-1.927-8.188     C1609.952,1358.605,1610.631,1361.367,1610.808,1364.244z"></path>			</g>			<g id="OVERLAY_2_" opacity="0.8">				<g>					<linearGradient id="SVGID_19_" gradientUnits="userSpaceOnUse" x1="1608.8813" y1="1327.0928" x2="1645.2651" y2="1327.0928">						<stop offset="0" style="stop-color:#071A2B;stop-opacity:0"></stop>						<stop offset="1" style="stop-color:#071A2B"></stop>					</linearGradient>					<path fill="url(#SVGID_19_)" d="M1645.01,1291.128c-0.153-0.388-0.29-0.775-0.446-1.187h-0.078      c0.272,0.604,0.524,1.247,0.779,1.87C1645.187,1291.576,1645.088,1291.363,1645.01,1291.128z M1610.808,1364.244      c-0.177-2.877-0.856-5.639-1.927-8.188C1609.542,1358.761,1610.185,1361.481,1610.808,1364.244z"></path>				</g>				<g>					<g>						<linearGradient id="SVGID_20_" gradientUnits="userSpaceOnUse" x1="1608.8813" y1="1360.1504" x2="1610.8081" y2="1360.1504">							<stop offset="0" style="stop-color:#071A2B;stop-opacity:0"></stop>							<stop offset="1" style="stop-color:#071A2B"></stop>						</linearGradient>						<path fill="url(#SVGID_20_)" d="M1610.808,1364.244c-0.623-2.763-1.266-5.483-1.927-8.188       C1609.952,1358.605,1610.631,1361.367,1610.808,1364.244z"></path>					</g>				</g>				<g>					<linearGradient id="SVGID_21_" gradientUnits="userSpaceOnUse" x1="1077.5103" y1="692.3428" x2="1089.0688" y2="692.3428">						<stop offset="0" style="stop-color:#071A2B;stop-opacity:0"></stop>						<stop offset="1" style="stop-color:#071A2B"></stop>					</linearGradient>					<path fill="url(#SVGID_21_)" d="M1089.069,717.597c-4.359-16.031-8.172-32.881-11.559-50.508L1089.069,717.597z"></path>				</g>				<linearGradient id="SVGID_22_" gradientUnits="userSpaceOnUse" x1="1013.0903" y1="694.1523" x2="1514.0327" y2="694.1523">					<stop offset="0.2" style="stop-color:#071A2B;stop-opacity:0"></stop>					<stop offset="1" style="stop-color:#071A2B"></stop>				</linearGradient>				<path fill="url(#SVGID_22_)" d="M1514.033,616.619H1013.09c1.811,12.238,3.757,24.125,5.877,35.702     c7.841,42.745,17.957,80.841,30.332,114.325c0.155,0.39,0.292,0.778,0.448,1.188h415.488v3.853     C1489.283,731.956,1513.993,676.544,1514.033,616.619z M1308.924,717.578v0.019l-219.855,0     c-4.359-16.031-8.172-32.881-11.559-50.508l231.414,0v0.02c13.754,0.194,24.864,11.42,24.864,25.234     S1322.678,717.363,1308.924,717.578z M1383.539,717.597v-0.019c-13.892-0.059-25.138-11.343-25.138-25.235     c0-13.911,11.246-25.176,25.138-25.254h124.694c-3.794,17.724-9.319,34.67-15.777,50.508H1383.539z"></path>				<linearGradient id="SVGID_23_" gradientUnits="userSpaceOnUse" x1="1179.7798" y1="1363.623" x2="1680.7192" y2="1363.623">					<stop offset="0" style="stop-color:#071A2B"></stop>					<stop offset="0.8" style="stop-color:#071A2B;stop-opacity:0"></stop>				</linearGradient>				<path fill="url(#SVGID_23_)" d="M1674.844,1405.456c-0.486-2.668-0.993-5.313-1.499-7.961     c-1.011-5.214-2.042-10.348-3.112-15.409c-3.775-17.781-7.957-34.71-12.589-50.762c-0.428-1.497-0.874-3.014-1.323-4.491     c-3.579-12.122-7.412-23.739-11.499-34.847v-0.019c-0.019-0.062-0.037-0.099-0.057-0.156c-0.255-0.623-0.507-1.266-0.779-1.87     h-415.41v-3.853c-9.631,15.896-19.359,34.322-27.569,54.538h309.314v0.02c13.894,0.057,25.138,11.343,25.138,25.232     c0,13.912-11.244,25.179-25.138,25.255h-325.035c-3.464,16.131-5.487,32.9-5.506,50.023h500.939     C1678.911,1428.918,1676.965,1417.031,1674.844,1405.456z M1585.112,1391.134c-13.95,0-25.255-11.306-25.255-25.255     c0-13.928,11.305-25.232,25.255-25.232c10.448,0,19.397,6.323,23.251,15.348c0,0.023,0,0.042,0.019,0.062     c1.07,2.55,1.75,5.312,1.927,8.188c0.038,0.547,0.057,1.091,0.057,1.635C1610.365,1379.828,1599.062,1391.134,1585.112,1391.134     z"></path>				<linearGradient id="SVGID_24_" gradientUnits="userSpaceOnUse" x1="1608.8813" y1="1360.1504" x2="1610.8081" y2="1360.1504">					<stop offset="0" style="stop-color:#071A2B;stop-opacity:0"></stop>					<stop offset="1" style="stop-color:#071A2B"></stop>				</linearGradient>				<path fill="url(#SVGID_24_)" d="M1610.808,1364.244c-0.623-2.763-1.266-5.483-1.927-8.188     C1609.952,1358.605,1610.631,1361.367,1610.808,1364.244z"></path>			</g>			<linearGradient id="Z_CURVE_10_" gradientUnits="userSpaceOnUse" x1="1659.2153" y1="716.5264" x2="1083.5973" y2="1292.1444">				<stop offset="0" style="stop-color:#54DE62"></stop>				<stop offset="0.5" style="stop-color:#37C8AD"></stop>				<stop offset="1" style="stop-color:#1BB3F7"></stop>			</linearGradient>			<path id="Z_CURVE_3_" fill="url(#Z_CURVE_10_)" d="M1681.103,616.619c-8.269,56.813-18.932,106.542-35.878,149.171    c-16.946,42.609-33.951,81.678-58.777,117.205c-24.865,35.488-53.465,69.615-85.86,102.38    c-14.009,14.182-28.561,28.831-43.718,43.99h-0.39c-8.074,8.17-16.266,16.457-24.825,25    c-16.559,16.617-35.392,35.413-56.463,56.348c-21.091,20.934-30.41,30.427-51.111,52.938    c-20.702,22.53-45.042,44.692-62.066,68.776c-15.739,22.262-28.464,43.583-38.697,63.488c-0.059,0.099-0.099,0.193-0.156,0.292    c-8.134,15.759-14.729,30.625-20.079,44.419c-7.433,19.126-12.453,36.15-15.877,50.507c-4.182,17.591-5.934,31.168-6.653,39.691    c0,0.057-0.02,0.137-0.02,0.194c-0.564,6.559-0.505,10.077-0.505,10.077h-167.383c8.269-56.811,18.93-106.542,35.896-149.171    c16.928-42.606,41.714-81.675,66.561-117.183c24.845-35.508,53.445-69.636,85.841-102.399    c14.007-14.182,28.58-28.835,43.718-43.99h0.39c8.073-8.154,16.265-16.462,24.826-25.004    c16.557-16.614,35.392-35.408,56.461-56.343c21.092-20.936,30.412-30.41,51.112-52.94c20.722-22.531,37.26-44.691,54.284-68.778    c13.171-18.639,24.222-36.597,33.503-53.641c10.545-19.339,18.795-37.473,25.253-54.05c7.434-19.106,12.512-36.13,15.955-50.508    c7.569-31.636,7.296-50.47,7.296-50.47H1681.103z"></path>			<g id="helix_sides_2_">				<path fill="#54DE62" d="M1105.8,767.833h-56.053c-0.156-0.409-0.293-0.798-0.448-1.188     c-12.375-33.484-22.491-71.58-30.332-114.325c-2.12-11.577-4.066-23.464-5.877-35.702h55.977     c2.548,17.492,5.331,34.321,8.443,50.469c3.387,17.627,7.199,34.477,11.559,50.508c4.63,16.966,9.862,33.037,15.896,48.193     C1105.236,766.471,1105.507,767.152,1105.8,767.833z"></path>				<path fill="#54DE62" d="M1158.098,868.908h-56.423c-20.701-31.694-38.426-66.073-53.135-103.118     c-16.967-42.629-27.628-92.358-35.896-149.171h0.446c1.811,12.238,3.757,24.125,5.877,35.702     c7.841,42.745,17.957,80.841,30.332,114.325c0.155,0.39,0.292,0.778,0.448,1.188h56.053     C1120.333,804.1,1137.788,837.798,1158.098,868.908z"></path>				<path fill="#00B9F2" d="M1681.219,1441.157h-56.423c-2.51-17.336-5.272-34.011-8.347-50.023     c-3.386-17.647-7.179-34.475-11.537-50.507c-4.651-17.123-9.924-33.33-16.014-48.641c-0.271-0.684-0.543-1.364-0.836-2.045     h56.423c0.293,0.662,0.564,1.342,0.836,2.026v0.019c12.238,33.27,22.24,71.092,30.022,113.47     C1677.465,1417.031,1679.411,1428.918,1681.219,1441.157z"></path>				<path fill="#00B9F2" d="M1592.188,1188.868c20.312,31.111,37.765,64.806,52.298,101.073h-56.423     c-14.533-36.268-31.987-69.962-52.298-101.073H1592.188z"></path>			</g>		</g>	</g></g><g id="Layer_7" display="none">	<g display="inline">		<rect x="1222" y="271" fill="#73BAF0" width="99" height="99"></rect>		<rect x="1348" y="271" fill="#B3FCBB" width="99" height="99"></rect>		<rect x="1476" y="271" fill="#131F30" width="99" height="99"></rect>		<rect x="1222" y="399" fill="#1BB3F7" width="99" height="99"></rect>		<rect x="1348" y="399" fill="#54DE62" width="99" height="99"></rect>		<rect x="1476" y="399" fill="#071A2B" width="99" height="99"></rect>	</g></g></svg>