<svg xmlns="http://www.w3.org/2000/svg" xmlns:xlink="http://www.w3.org/1999/xlink" id="Layer_1" x="0px" y="0px" width="500px" height="500px" viewBox="0 0 500 500" xml:space="preserve"><g>	<g>		<path fill="#004968" d="M246.105,391.406c-6.496-2.584-13.098-4.99-19.505-7.822c-22.798-10.125-43.083-23.719-59.243-43.012   c-15.346-18.268-25.046-39.33-30.604-62.377c-5.47-22.619-6.921-45.595-6.886-68.711c0.019-12.319-0.159-24.674,0.744-36.994   c0.92-12.319,11.771-23.612,24.019-24.674c14.479-1.274,28.799-3.151,42.552-8.249c14.319-5.31,27.046-13.133,38.232-23.47   c3.398-3.115,6.797-6.089,11.239-7.541c2.213,0,4.425,0,6.638,0c5.947,1.628,9.734,6.301,14.124,10.089   c17.135,14.762,36.959,23.506,59.243,27.081c7.187,1.133,14.515,0.956,21.595,2.62c11.575,2.69,20.443,12.78,21.063,24.639   c1.063,19.86,1.133,39.755,0.124,59.614c-0.886,17.488-3.204,34.728-7.876,51.614c-8.072,29.205-23.047,54.092-46.357,73.668   c-17.646,14.832-37.809,25.1-59.438,32.71c-0.832,0.283-1.895-0.142-2.479,0.813C250.902,391.406,248.513,391.406,246.105,391.406   z M142.206,203.36c-0.266,24.887,0.938,48.605,6.655,71.933c6.106,24.922,17.275,47.119,35.542,65.42   c17.965,17.984,39.666,29.701,63.384,38.092c1.912,0.672,3.611,0.283,5.363-0.354c6.974-2.514,13.842-5.311,20.531-8.567   c26.586-12.813,48.27-31.045,62.854-57.063c13.806-24.674,18.903-51.687,20.585-79.474c1.168-19.399,0.832-38.834,0.105-58.269   c-0.301-8.178-6.371-14.585-14.515-15.222c-11.186-0.85-22.267-2.266-33.117-5.239c-20.975-5.735-39.294-16.107-55.063-31.046   c-4.071-3.823-4.886-3.858-8.886-0.106c-10.143,9.452-21.347,17.346-33.913,23.293c-17.347,8.248-35.772,11.824-54.782,13.133   c-7.753,0.531-13.895,7.116-14.231,14.939C142.312,184.668,142.135,194.51,142.206,203.36z"></path>		<path fill="#FFFFFF" d="M142.206,203.36c-0.071-8.85,0.105-18.691,0.513-28.533c0.337-7.823,6.479-14.408,14.231-14.939   c19.01-1.31,37.436-4.885,54.782-13.133c12.566-5.947,23.771-13.842,33.913-23.293c4-3.752,4.814-3.717,8.886,0.106   c15.771,14.939,34.09,25.312,55.063,31.046c10.852,2.974,21.933,4.39,33.117,5.239c8.144,0.637,14.214,7.044,14.515,15.222   c0.727,19.435,1.063,38.87-0.105,58.269c-1.682,27.789-6.779,54.801-20.585,79.475c-14.585,26.02-36.269,44.25-62.854,57.063   c-6.689,3.259-13.559,6.056-20.531,8.567c-1.752,0.638-3.451,1.025-5.363,0.354c-23.718-8.391-45.419-20.107-63.384-38.092   c-18.267-18.301-29.436-40.498-35.542-65.42C143.144,251.965,141.94,228.247,142.206,203.36z M249.946,188.669   c-4.974,0-9.947-0.036-14.903,0c-5.947,0-8.106,2.159-8.106,8.177c-0.018,8.178-0.089,16.355,0.053,24.568   c0.036,2.23-0.69,2.797-2.832,2.761c-8.372-0.106-16.762-0.071-25.134-0.035c-5.257,0.035-7.576,2.407-7.594,7.576   c0,10.23,0,20.462,0,30.657c0.018,5.593,2.036,7.609,7.718,7.609c8.195,0,16.39,0.106,24.567-0.034   c2.461-0.071,3.346,0.53,3.274,3.149c-0.177,8.106-0.088,16.215-0.053,24.32c0.018,6.124,2.23,8.318,8.302,8.318   c9.752,0,19.522,0,29.258,0c6.301,0,8.514-2.159,8.531-8.391c0.018-8.213,0.07-16.391-0.053-24.604   c-0.019-2.123,0.549-2.832,2.778-2.797c8.46,0.106,16.938,0.072,25.399,0.035c5.257,0,7.346-2.123,7.362-7.397   c0.019-10.019,0-20.072,0-30.09c0-6.266-2.105-8.354-8.479-8.354c-8.019-0.036-16.019-0.142-24.019,0.035   c-2.515,0.071-3.188-0.743-3.045-3.115c0.213-3.009,0.053-6.089,0.053-9.098c0-5.168,0.07-10.337-0.019-15.47   c-0.069-5.735-2.229-7.823-7.877-7.823C260.07,188.633,255.009,188.669,249.946,188.669z"></path>		<path fill="#70BF5E" d="M249.946,188.669c5.063,0,10.125-0.036,15.187,0c5.646,0,7.807,2.088,7.877,7.823   c0.09,5.133,0.018,10.302,0.018,15.47c0,3.009,0.16,6.089-0.053,9.098c-0.142,2.372,0.531,3.186,3.045,3.115   c8-0.177,16-0.071,24.02-0.035c6.372,0,8.479,2.088,8.479,8.354c0,10.018,0.019,20.072,0,30.09   c-0.018,5.273-2.105,7.398-7.362,7.398c-8.462,0.035-16.939,0.07-25.399-0.035c-2.23-0.036-2.797,0.673-2.779,2.796   c0.125,8.213,0.07,16.391,0.054,24.604c-0.019,6.229-2.23,8.391-8.531,8.391c-9.735,0-19.506,0-29.258,0   c-6.071,0-8.284-2.195-8.302-8.319c-0.035-8.106-0.124-16.214,0.053-24.319c0.071-2.621-0.813-3.223-3.274-3.15   c-8.178,0.142-16.372,0.035-24.567,0.035c-5.682,0-7.7-2.019-7.718-7.61c0-10.194,0-20.427,0-30.657   c0.018-5.168,2.337-7.541,7.594-7.576c8.372-0.036,16.762-0.071,25.134,0.035c2.142,0.036,2.868-0.531,2.832-2.761   c-0.142-8.213-0.07-16.39-0.053-24.568c0-6.018,2.159-8.177,8.106-8.177C239.999,188.633,244.973,188.669,249.946,188.669z    M219.644,236.282c-4.425,0-8.85,0.106-13.257-0.035c-2.054-0.071-2.938,0.354-2.85,2.69c0.177,5.416,0.142,10.868,0,16.284   c-0.036,2.055,0.549,2.69,2.637,2.655c8.195-0.106,16.391-0.071,24.586-0.035c6.425,0,8.585,2.123,8.585,8.638   c0.018,8.106,0.053,16.213-0.036,24.285c-0.035,2.088,0.425,2.938,2.708,2.866c5.346-0.177,10.691-0.142,16.019,0   c2.125,0.07,2.655-0.637,2.638-2.69c-0.124-8.354-0.089-16.744-0.035-25.133c0.035-5.736,2.354-7.966,8.125-7.966   c8.371-0.036,16.762-0.071,25.135,0.035c1.894,0,2.549-0.53,2.514-2.479c-0.125-5.345-0.16-10.69,0-16.036   c0.088-2.372-0.549-3.186-3.045-3.151c-8.195,0.177-16.408-0.142-24.586,0.142c-6.85,0.248-8.23-3.575-8.178-8.39   c0.07-8.284-0.035-16.567,0.053-24.851c0.019-1.841-0.565-2.372-2.354-2.336c-5.521,0.106-11.045,0.142-16.567,0   c-2.018-0.036-2.46,0.708-2.425,2.549c0.106,5.168,0.089,10.301,0.018,15.47c-0.053,4.036,0.372,8.107-0.229,12.143   c-0.566,3.646-2.531,5.274-6.195,5.345C228.494,236.318,224.069,236.282,219.644,236.282z"></path>		<path fill="#9DCF85" d="M219.644,236.282c4.426,0,8.851,0.036,13.258,0c3.664-0.071,5.629-1.699,6.195-5.345   c0.602-4.036,0.177-8.107,0.229-12.143c0.071-5.168,0.089-10.301-0.018-15.47c-0.035-1.841,0.407-2.584,2.425-2.549   c5.522,0.142,11.044,0.106,16.567,0c1.788-0.036,2.372,0.496,2.354,2.336c-0.09,8.284,0.018,16.567-0.055,24.851   c-0.053,4.814,1.328,8.638,8.178,8.39c8.179-0.283,16.392,0.036,24.587-0.142c2.495-0.035,3.133,0.779,3.045,3.151   c-0.16,5.345-0.125,10.691,0,16.036c0.034,1.947-0.62,2.479-2.515,2.479c-8.373-0.106-16.763-0.071-25.135-0.035   c-5.77,0-8.089,2.229-8.123,7.966c-0.055,8.389-0.09,16.778,0.034,25.133c0.019,2.055-0.513,2.762-2.638,2.69   c-5.327-0.142-10.673-0.177-16.019,0c-2.283,0.07-2.743-0.778-2.708-2.866c0.089-8.072,0.054-16.179,0.036-24.285   c0-6.515-2.16-8.638-8.585-8.638c-8.195-0.036-16.391-0.071-24.586,0.035c-2.088,0.035-2.673-0.603-2.637-2.655   c0.142-5.417,0.177-10.868,0-16.284c-0.089-2.336,0.796-2.761,2.85-2.69C210.794,236.389,215.219,236.282,219.644,236.282z"></path>	</g></g></svg>