<svg xmlns="http://www.w3.org/2000/svg" xmlns:xlink="http://www.w3.org/1999/xlink" id="Layer_1" x="0px" y="0px" width="500px" height="500px" viewBox="0 0 500 500" xml:space="preserve"><g>	<g>		<path fill="#9DCF85" d="M246.885,144.56c0-7.363,0-14.337,0-21.488c7.258,0,14.338,0,21.735,0c0,7.045,0,14.16,0,21.488   c4.762,0,9.258,0,13.754,0c3.894,0,7.806-0.071,11.717,0.071c0.779,0.035,2.035,0.885,2.283,1.593   c3.965,11.682,6.674,23.683,8.054,35.932c1.239,11.363,1.363,22.727,0.479,34.126c-1.15,14.974-4.462,29.488-9.327,43.684   c-0.283,0.813-1.204,1.63-2.02,2.054c-32.604,17.205-66.356,31.86-101.314,43.613c-13.417,4.531-26.992,8.496-40.586,12.461   c-10.744,3.079-21.24-3.222-23.949-14.019c-0.354-1.486-0.513-3.011-0.513-4.531c0-27.541-0.584-55.119,0.301-82.66   c0.797-25.453,12.956-45.313,33.932-59.614c12.708-8.673,26.975-12.638,42.303-12.673c13.364-0.071,26.692-0.035,40.038-0.035   C244.708,144.56,245.61,144.56,246.885,144.56z"></path>		<path fill="#70BF5E" d="M309.597,252.744c9.982-36.428,8.496-72.217-1.965-108.042c23.258,0,46.395,0,69.936,0   c0,6.053,0.068,12.071,0,18.054c-0.268,25.594-12.408,45.383-30.533,62.163C335.651,235.433,323.03,244.389,309.597,252.744z"></path>		<path fill="#004968" d="M279.523,372.893c-10.922,0-21.611,0-32.691,0c0-0.955,0-1.947,0-2.938   c-0.018-9.063,0.283-18.16-0.159-27.26c-0.514-11.434-4.727-21.274-14.32-28.248c-2.513-1.842-2.53-1.594-4.142,1.062   c-1.911,3.188-3.93,6.585-6.762,8.779c-13.063,10.16-27.983,14.16-44.444,11.931c-2.479-0.318-4.975-1.664-7.116-3.044   c-1.327-0.778-2.39-2.479-2.974-3.965c-1.257-3.151-0.566-4.248,2.673-5.274c23.399-7.045,46.463-15.011,69.031-24.427   c3.026-1.311,5.699-1.842,9.063-0.071c5.789,2.938,12.779-0.672,14.407-7.08c0.566-2.229,1.734-3.434,3.718-4.39   c7.717-3.717,15.381-7.575,23.045-11.362c0.496-0.282,1.01-0.461,1.932-0.851C282.23,307.756,278.621,340.006,279.523,372.893z"></path>	</g></g></svg>