<svg xmlns="http://www.w3.org/2000/svg" xmlns:xlink="http://www.w3.org/1999/xlink" id="Layer_1" x="0px" y="0px" width="500px" height="500px" viewBox="0 0 500 500" xml:space="preserve"><g>	<g id="peptide">		<path fill="#3CAFE3" d="M242.018,303.096c-0.354,0.178-0.673,0.248-1.045,0.248c0-2.123-0.035-4.248-0.035-6.336   c5.328,0,10.691,0,16.019,0.035c2.266,0,4.159-0.07,5.08-2.797c4.283-12.566,13.734-17.453,26.977-16.355   c2.034,0.674,4.034,1.346,6.018,1.982c14.479,9.453,16.868,22.268,6.479,35.543c-1.273,1.664-1.717,2.832-0.318,4.496   c0.851,1.025,1.574,2.193,2.178,3.363c2.566,5.024,5.098,7.893,12.479,6.619c12.319-2.125,22.887,6.407,24.939,17.735   c2.177,12.142-4.301,22.09-16.798,25.843c-0.46,0.141-0.796,0.672-1.187,0.989c-3.575,0-7.133,0-10.709,0   c-4.389-2.726-9.486-4.459-12.779-8.851c-6.424-8.495-6.461-19.93,0.763-28.071c2.336-2.584,2.46-4.283,0.389-6.69   c-0.618-0.742-1.114-1.627-1.539-2.441c-2.53-5.063-5.293-7.576-12.267-5.947c-9.912,2.371-21.028-5.098-24.18-15.188   c-1.063-3.435-2.565-4.105-5.717-3.965c-4.565,0.143-9.098-0.105-13.665-0.142C242.726,302.529,242.371,302.529,242.018,303.096z    M284.409,316.123c9.079,0,16.938-7.291,16.938-15.717c-0.019-8.391-7.947-16.355-16.479-16.533   c-9.134-0.176-16.957,7.471-16.832,16.391C268.125,309.539,274.939,316.123,284.409,316.123z M317.916,367.809   c9.274-0.035,16.886-7.506,16.709-16.426c-0.124-8.072-8.001-15.646-16.443-15.789c-9.099-0.213-16.852,7.363-16.814,16.391   C301.4,360.941,308.553,367.844,317.916,367.809z"></path>		<path fill="#BADDB1" d="M240.938,297.008c0,2.088,0.035,4.213,0.035,6.336c-4.549,15.258-13.611,20.852-30.02,18.373   c-2.018-0.318-3.398-0.07-4.442,1.699c-0.814,1.275-1.54,2.654-2.531,3.824c-3.327,4.176-4.425,7.326-0.371,12.637   c8.69,11.436,3.079,27.117-10.479,32.887c-1.204,0.496-2.921,0.107-3.505,1.699c-3.558,0-7.098,0-10.709,0   c-0.602-1.203-1.982-1.025-3.026-1.451c-11.47-4.707-17.452-16.072-14.178-27.08c3.434-11.541,14.69-18.656,27.01-15.932   c4.727,0.992,6.391-0.424,8.195-3.752c1.274-2.371,2.868-4.566,4.372-6.832c0.867-1.238,0.762-2.088-0.212-3.469   c-10.779-15.082-8.868-25.771,6.318-36.428c1.947-0.496,3.877-0.99,5.823-1.486c1.311,1.84,3.505,1.381,4.833,0.814   c3.558-1.595,6.549-0.318,9.575,1.024C235.221,283.236,239.132,289.396,240.938,297.008z M233.84,300.053   c-0.018-8.957-6.991-15.754-16.496-16.037c-8.496-0.178-16.001,7.576-15.948,16.566c0.053,8.992,6.832,15.436,16.195,15.471   C227.185,316.053,233.84,309.469,233.84,300.053z M168.03,351.701c0,9.486,6.585,16,16.214,16   c9.575,0.037,16.337-6.619,16.249-15.93c-0.089-8.672-7.629-16.248-15.948-16.035C174.986,335.982,168.013,342.709,168.03,351.701   z"></path>		<path fill="#3CAFE3" d="M335.898,116.103c8.249,2.903,15.135,7.292,17.735,15.965c2.743,9.133,0.425,17.134-6.85,23.417   c-7.56,6.496-16.392,7.522-25.365,3.452c-3.593-1.593-5.54-1.274-7.981,1.451c-3.115,3.434-6.62,6.584-9.947,9.841   c-1.559-1.54-3.098-3.115-4.639-4.637c1.239-1.204,2.479-2.425,3.717-3.646c5.223-5.133,10.799-8.567,6.567-18.55   c-5.079-11.912,3.327-22.054,18.427-27.293C330.323,116.103,333.103,116.103,335.898,116.103z M347.829,138.865   c-0.054-9.381-7.239-16.213-16.852-16.054c-8.743,0.124-16.372,7.363-16.461,15.541c-0.105,8.567,8.283,16.833,16.868,16.674   C340.43,154.848,347.918,147.538,347.829,138.865z"></path>		<path fill="#4EB648" d="M213.219,278.033c-1.946,0.496-3.876,0.99-5.823,1.486c-1.558-4.105-3.203-8.144-4.549-12.293   c-0.584-1.857-1.221-2.707-3.522-2.938c-22.744-2.054-31.028-16.816-20.443-36.268c1.381-1.345,2.779-2.708,4.177-4.036   c4.55-1.841,8.532-4.974,14.249-3.788c1.682,0.354,5.858-0.372,6.071-4.531c0.124-2.195,1.186-4.425,2.159-6.478   c1.593-3.434,0.85-5.399-2.442-7.895c-13.417-10.16-11.239-31.453,4.318-37.33c12.391-4.69,27.4-4,33.542,16.709   c0.018,2.195,0.018,4.372,0.018,6.584c-4.07,12.054-11.346,19.222-20.921,18.762c-5.505-0.266-7.877,1.328-8.797,6.142   c-0.319,1.681-0.779,3.398-1.576,4.903c-1.734,3.328-0.813,5.115,2.319,7.434c10.461,7.771,12.744,23.435,3.115,31.753   c-7.045,6.037-6.302,10.853-3.115,17.426C212.652,274.988,212.813,276.582,213.219,278.033z M217.68,199.931   c9.115,0.088,16.638-7.063,16.779-15.877c0.142-8.461-7.682-16.161-16.549-16.231c-9.452-0.106-16.55,6.567-16.691,15.7   C201.095,193.134,207.874,199.877,217.68,199.931z M181.164,242.11c0.089,8.797,7.576,16.32,16.319,16.285   c8.655-0.035,16.975-7.842,16.975-15.983c0-8.992-7.593-16.213-17.027-16.231C187.996,226.18,181.075,232.924,181.164,242.11z"></path>		<path fill="#3CAFE3" d="M240.973,187.257c0-2.212,0-4.39-0.018-6.584c2.372-0.018,4.762-0.212,7.116-0.018   c7.681,0.655,13.222,0.194,17.257-8.673c5.311-11.646,18.922-13.257,33.523-6.39c1.541,1.522,3.08,3.098,4.639,4.637   c7.273,13.93,5.752,22.161-6.283,32.586c-1.682,1.416-1.877,2.566-1.24,4.372c1.506,4.089,2.903,8.231,4.338,12.355   c-2.054,0.69-4.125,1.38-6.195,2.053c-1.187-3.434-2.514-6.797-3.541-10.302c-0.938-3.239-2.122-4.92-6.354-4.903   c-8.16,0.071-16.408-3.027-18.992-10.425c-3.274-9.417-9.522-9.311-17.134-8.726C245.734,187.399,243.345,187.257,240.973,187.257   z M284.729,167.805c-8.992,0-16.621,7.31-16.655,15.966c-0.035,8.744,7.575,16.266,16.372,16.16   c9.203-0.124,16.691-7.116,16.886-15.859C301.49,175.876,293.225,167.805,284.729,167.805z"></path>		<path fill="#D4E9CA" d="M183.058,223.985c-1.397,1.327-2.796,2.69-4.177,4.036c-2.018-1.806-4.195-3.487-6-5.522   c-4.372-4.868-7.895-8-16.001-4.408c-11.293,4.974-24.745-2.974-28.392-14.656c-3.682-11.859,2.903-24.09,15.045-27.877   c12.231-3.823,25.17,2.354,29.276,13.859c2.266,6.337,1.858,12.479-1.664,18.196c-1.398,2.284-1.168,3.558,0.708,5.31   C175.73,216.462,179.376,220.286,183.058,223.985z M150.685,212.692c9.611,0.036,16.514-6.514,16.479-15.682   c-0.018-8.815-7.47-16.461-16.107-16.515c-8.708-0.088-17.204,8.036-17.239,16.461   C133.78,205.312,141.657,212.657,150.685,212.692z"></path>		<path fill="#4EB648" d="M294.109,221.596c2.07-0.673,4.142-1.363,6.193-2.053c7.719-0.142,15.116,0.796,20.71,6.655   c1.311,1.292,2.267,0.974,3.539,0.088c1.771-1.186,3.576-2.442,5.523-3.292c4.973-2.177,6.425-4.938,4.991-10.585   c-2.479-9.558,5.062-20.444,15.08-23.842c10.566-3.575,22.107,0.354,27.808,9.523c5.894,9.452,4.035,21.223-4.531,28.568   c-8.143,7.045-20.479,7.417-29.542,1.151c-1.505-1.062-2.354-4.16-5.133-2.531c-4.142,2.496-8.213,5.133-12.143,7.947   c-0.442,0.283,0.266,2.106,0.494,3.204c3.275,15.205-6.761,27.717-22.674,27.896c-3.025,0.034-4.584,0.672-5.398,3.663   c-1.062,4.027-2.653,7.921-4,11.886c-1.981-0.638-3.981-1.31-6.018-1.981c1.416-4.354,2.689-8.744,4.248-13.035   c0.637-1.699,0.46-2.515-1.027-3.771C276.656,248.075,277.4,233.012,294.109,221.596z M288.145,241.615   c-0.106,9.168,7.026,16.443,16.461,16.744c8.283,0.267,16.922-7.964,16.851-16.054c-0.088-8.779-7.486-16.019-16.515-16.107   C295.277,226.091,288.25,232.552,288.145,241.615z M357.971,193.93c-9.485,0.036-16.39,6.744-16.337,15.895   c0.036,8.832,7.629,16.39,16.354,16.302c8.887-0.088,17.223-8.195,17.011-16.603C374.786,200.957,367.069,193.877,357.971,193.93z   "></path>		<path fill="#4F946C" d="M242.018,303.096c0.354-0.566,0.708-0.566,1.079,0.072l-0.566,0.07L242.018,303.096z"></path>		<path fill="#C9EAF8" d="M284.409,316.123c-9.47,0-16.284-6.584-16.372-15.859c-0.125-8.92,7.699-16.566,16.832-16.391   c8.531,0.178,16.461,8.143,16.479,16.533C301.348,308.832,293.489,316.123,284.409,316.123z"></path>		<path fill="#C9EAF8" d="M317.916,367.809c-9.363,0.035-16.516-6.867-16.55-15.824c-0.036-9.026,7.717-16.604,16.814-16.391   c8.442,0.143,16.319,7.717,16.443,15.789C334.802,360.303,327.19,367.773,317.916,367.809z"></path>		<path fill="#014867" d="M233.84,300.053c0,9.416-6.655,16-16.249,16c-9.363-0.035-16.143-6.479-16.195-15.471   c-0.053-8.99,7.452-16.744,15.948-16.566C226.849,284.299,233.822,291.096,233.84,300.053z"></path>		<path fill="#014867" d="M168.03,351.701c-0.018-8.992,6.956-15.719,16.515-15.965c8.319-0.213,15.859,7.363,15.948,16.035   c0.088,9.311-6.674,15.967-16.249,15.93C174.615,367.701,168.03,361.188,168.03,351.701z"></path>		<path fill="#C9EAF8" d="M347.829,138.865c0.089,8.673-7.399,15.983-16.443,16.161c-8.585,0.159-16.975-8.107-16.868-16.674   c0.089-8.177,7.718-15.417,16.461-15.541C340.59,122.651,347.775,129.484,347.829,138.865z"></path>		<path fill="#D4E9CA" d="M217.68,199.931c-9.806-0.053-16.585-6.797-16.461-16.408c0.142-9.133,7.239-15.806,16.691-15.7   c8.867,0.071,16.69,7.771,16.549,16.231C234.317,192.868,226.795,200.019,217.68,199.931z"></path>		<path fill="#D4E9CA" d="M181.164,242.11c-0.089-9.187,6.832-15.93,16.267-15.93c9.435,0.018,17.027,7.239,17.027,16.231   c0,8.142-8.319,15.948-16.975,15.983C188.74,258.43,181.253,250.907,181.164,242.11z"></path>		<path fill="#C9EAF8" d="M284.729,167.805c8.496,0,16.763,8.071,16.603,16.267c-0.194,8.744-7.683,15.735-16.886,15.859   c-8.797,0.106-16.407-7.417-16.372-16.16C268.107,175.115,275.736,167.805,284.729,167.805z"></path>		<path fill="#014867" d="M150.685,212.692c-9.027-0.035-16.904-7.381-16.868-15.735c0.035-8.425,8.531-16.55,17.239-16.461   c8.638,0.053,16.09,7.7,16.107,16.515C167.198,206.179,160.296,212.728,150.685,212.692z"></path>		<path fill="#D4E9CA" d="M288.145,241.615c0.105-9.063,7.133-15.523,16.797-15.417c9.027,0.088,16.427,7.328,16.515,16.107   c0.071,8.089-8.566,16.32-16.851,16.054C295.171,258.059,288.037,250.783,288.145,241.615z"></path>		<path fill="#D4E9CA" d="M357.971,193.93c9.1-0.053,16.815,7.027,17.028,15.594c0.212,8.408-8.124,16.515-17.011,16.603   c-8.727,0.088-16.318-7.47-16.354-16.302C341.581,200.674,348.484,193.966,357.971,193.93z"></path>	</g></g></svg>