<svg xmlns="http://www.w3.org/2000/svg" xmlns:xlink="http://www.w3.org/1999/xlink" id="Layer_1" x="0px" y="0px" width="500px" height="500px" viewBox="0 0 500 500" xml:space="preserve"><g>	<path fill-rule="evenodd" clip-rule="evenodd" fill="#9CCF84" d="M283.486,115.833c4.46,2.018,6.106,5.452,5.806,10.231  c-0.266,4.531-0.035,9.063-0.07,13.594c-0.036,4.814-3.398,8.177-7.947,8.142c-4.426-0.035-7.7-3.469-7.735-8.142  c-0.036-4.531,0.212-9.063-0.054-13.594c-0.301-4.779,1.328-8.213,5.807-10.231C280.689,115.833,282.088,115.833,283.486,115.833z"></path>	<path fill-rule="evenodd" clip-rule="evenodd" fill="#014867" d="M298.638,242.672c4.443,0,8.62,0,12.814,0  c10.674,0,21.312-0.035,31.967,0c10.107,0.036,17.754,4.425,22.107,13.559c4.036,8.496,2.956,16.779-2.654,24.391  c-0.248,0.354-0.479,0.744-0.727,1.098c-0.018,0.07,0,0.177-0.035,0.46c3.363,4.213,5.541,9.027,5.699,14.691  c0.178,5.487-1.345,10.479-4.726,14.868c-0.85,1.098-1.079,1.841-0.142,3.15c9.682,13.7,4.531,30.48-11.169,36.568  c-0.318,0.143-0.637,0.248-1.133,0.461c0.337,1.345,0.726,2.654,1.009,4c2.975,14.585-8.089,28.107-23.258,28.179  c-15.983,0.106-31.984-0.035-47.949,0.035c-32.764,0.142-31.082,0.354-62.677-10.23c-2.478-0.85-4.991-1.558-7.416-2.514  c-1.381-0.53-2.106-0.39-2.938,0.991c-4.744,7.753-11.664,11.718-20.815,11.753c-15.293,0-30.568,0-45.861,0  c-5.611-0.035-8.673-3.115-8.673-8.779c-0.018-46.552-0.018-93.103,0-139.654c0-5.664,3.08-8.744,8.708-8.744  c15.188,0,30.409-0.035,45.578,0c9.895,0.036,17.223,4.39,21.807,13.169c0.726,1.381,1.381,1.593,2.85,1.098  c9.258-3.08,16.408-9.133,22.604-16.391c10.956-12.85,18.036-27.647,21.612-44.144c0.761-3.504,1.681-6.938,2.584-10.408  c1.256-4.602,3.965-6.69,8.69-6.762c7.063-0.07,14.16-0.318,20.709,3.115c11.293,5.983,17.364,15.293,17.735,28.144  C305.435,210.918,303.204,226.742,298.638,242.672z M210.633,306.109c0,15.471,0.035,30.904-0.036,46.375  c-0.018,1.77,0.443,2.584,2.213,3.115c6.319,1.982,12.603,4.035,18.833,6.266c10.054,3.575,20.249,6.549,31.046,6.549  c21.647,0.035,43.313,0.035,64.942,0c4.991,0,8.514-3.115,8.743-7.54c0.248-4.283-3.15-7.718-8.106-8.178  c-4.708-0.46-7.771-3.788-7.558-8.319c0.194-4.283,3.575-7.363,8.23-7.398c4.797-0.035,9.611,0.035,14.391,0  c5.098-0.07,8.726-3.292,8.779-7.788c0.053-4.566-3.646-7.894-8.868-7.93c-4.797-0.035-9.611,0-14.408-0.035  c-4.708-0.035-8.106-3.292-8.142-7.753c-0.018-4.566,3.381-7.895,8.213-7.93c4.814-0.035,9.611,0.035,14.408,0  c5.098-0.07,8.726-3.292,8.797-7.752c0.07-4.567-3.629-7.93-8.833-7.966c-4.726-0.07-9.435,0-14.16-0.035  c-4.938-0.035-8.372-3.187-8.425-7.718c-0.035-4.708,3.398-7.93,8.461-7.965c4.902-0.035,9.77,0.106,14.673-0.035  c5.93-0.142,9.665-5.311,7.753-10.549c-1.222-3.363-4.248-5.169-8.832-5.169c-25.56,0-51.154,0.035-76.748,0  c-4.814,0-8.23-3.363-8.178-7.965c0.053-4.461,3.434-7.682,8.142-7.718c4.461-0.035,8.921-0.106,13.382,0.036  c1.734,0.071,2.619-0.425,3.186-2.16c5.045-14.974,7.151-30.373,6.603-46.056c-0.301-7.895-5.611-13.594-12.78-14.833  c-4.442-0.778-4.513-0.778-5.469,3.576c-4.584,20.851-13.611,39.436-28.249,55.119c-8.178,8.779-17.595,15.718-29.436,18.62  c-2.178,0.566-2.62,1.522-2.603,3.54C210.668,275.701,210.633,290.923,210.633,306.109z M147.938,242.672  c0,42.056,0,83.828,0,125.742c12.408,0,24.621,0,36.852,0c7.328,0,10.143-2.797,10.143-10.089c0-35.188,0-70.376,0-105.563  c0-0.814,0.035-1.594-0.018-2.372c-0.354-4.39-3.363-7.611-7.771-7.682C174.135,242.566,161.143,242.672,147.938,242.672z"></path>	<path fill-rule="evenodd" clip-rule="evenodd" fill="#9CCF84" d="M232.333,136.967c1.08,0.566,3.239,1.239,4.743,2.619  c3.735,3.398,7.275,7.045,10.762,10.691c3.417,3.54,3.398,8.213,0.142,11.398c-3.186,3.115-7.788,3.115-11.239-0.212  c-3.699-3.576-7.311-7.187-10.903-10.903c-2.39-2.479-3.026-5.452-1.699-8.673C225.447,138.772,227.979,137.285,232.333,136.967z"></path>	<path fill-rule="evenodd" clip-rule="evenodd" fill="#9CCF84" d="M321.063,164.048c-3.752-0.248-6.213-1.522-7.699-4.283  c-1.54-2.903-1.504-5.947,0.654-8.319c4.036-4.425,8.284-8.708,12.727-12.744c2.921-2.62,7.452-2.089,10.231,0.673  c2.743,2.726,3.327,7.292,0.69,10.195c-4,4.46-8.337,8.638-12.727,12.744C323.808,163.34,322.002,163.658,321.063,164.048z"></path>	<path fill-rule="evenodd" clip-rule="evenodd" fill="#FFFFFF" d="M210.633,306.109c0-15.187,0.035-30.408-0.036-45.596  c-0.018-2.018,0.425-2.974,2.603-3.54c11.841-2.902,21.258-9.841,29.436-18.62c14.638-15.683,23.665-34.268,28.249-55.119  c0.956-4.354,1.026-4.354,5.469-3.576c7.169,1.239,12.479,6.938,12.78,14.833c0.549,15.683-1.558,31.082-6.603,46.056  c-0.566,1.735-1.451,2.23-3.186,2.16c-4.461-0.142-8.921-0.071-13.382-0.036c-4.708,0.036-8.089,3.257-8.142,7.718  c-0.053,4.602,3.363,7.965,8.178,7.965c25.594,0.035,51.188,0,76.748,0c4.584,0,7.61,1.806,8.832,5.169  c1.912,5.238-1.823,10.407-7.753,10.549c-4.903,0.142-9.771,0-14.673,0.035c-5.063,0.035-8.496,3.257-8.461,7.965  c0.053,4.531,3.486,7.683,8.425,7.718c4.726,0.035,9.435-0.035,14.16,0.035c5.204,0.036,8.903,3.398,8.833,7.966  c-0.071,4.46-3.699,7.682-8.797,7.752c-4.797,0.035-9.594-0.035-14.408,0c-4.832,0.035-8.23,3.363-8.213,7.93  c0.035,4.461,3.434,7.718,8.142,7.753c4.797,0.035,9.611,0,14.408,0.035c5.222,0.036,8.921,3.363,8.868,7.93  c-0.054,4.496-3.682,7.718-8.779,7.788c-4.779,0.035-9.594-0.035-14.391,0c-4.655,0.035-8.036,3.115-8.23,7.398  c-0.213,4.531,2.85,7.859,7.558,8.319c4.956,0.46,8.354,3.895,8.106,8.178c-0.229,4.425-3.752,7.54-8.743,7.54  c-21.63,0.035-43.295,0.035-64.942,0c-10.797,0-20.992-2.974-31.046-6.549c-6.23-2.23-12.514-4.283-18.833-6.266  c-1.77-0.531-2.23-1.346-2.213-3.115C210.668,337.014,210.633,321.58,210.633,306.109z"></path>	<path fill-rule="evenodd" clip-rule="evenodd" fill="#9CCF84" d="M147.938,242.672c13.204,0,26.196-0.106,39.206,0.036  c4.407,0.071,7.416,3.292,7.771,7.682c0.053,0.778,0.018,1.558,0.018,2.372c0,35.188,0,70.375,0,105.563  c0,7.292-2.814,10.089-10.143,10.089c-12.23,0-24.443,0-36.852,0C147.938,326.5,147.938,284.728,147.938,242.672z M179.18,344.767  c-0.019-4.283-3.435-7.753-7.753-7.788c-4.443-0.035-7.947,3.47-7.93,7.895c0.018,4.354,3.451,7.753,7.753,7.788  C175.71,352.696,179.197,349.228,179.18,344.767z"></path>	<path display="none" fill-rule="evenodd" clip-rule="evenodd" fill="#FFFFFF" d="M179.18,344.767c0.018,4.461-3.47,7.93-7.93,7.895  c-4.302-0.035-7.735-3.434-7.753-7.788c-0.018-4.425,3.486-7.93,7.93-7.895C175.745,337.014,179.161,340.483,179.18,344.767z"></path></g></svg>