<svg xmlns="http://www.w3.org/2000/svg" xmlns:xlink="http://www.w3.org/1999/xlink" id="Layer_1" x="0px" y="0px" width="500px" height="500px" viewBox="0 0 500 500" xml:space="preserve"><g id="timer_4_">	<g id="timer_icon_3_">		<path fill="#BADDB1" d="M251.461,395.92c78.889,0,142.84-63.968,142.84-142.875c0-78.873-63.951-142.823-142.84-142.823V395.92z"></path>		<g>			<path fill="#014867" d="M251,84.556c5.311,0,10.656,0.23,15.965-0.018c5.682-0.319,11.629,5.398,12.373,10.673    c1.238,9.009-5.734,15.098-13.045,14.992c-3.734-0.071-3.15-0.124-3.168,3.204c-0.035,3.31,0.053,6.655-0.035,10    c0,1.558,0.531,2.142,2.123,2.266c7.045,0.602,13.93,2.053,20.744,4c8.957,2.531,17.541,6.019,25.666,10.514    c3.469,1.876,6.832,3.965,10.195,6.089c1.327,0.885,2.213,0.903,3.327-0.283c1.822-2,3.753-3.982,5.822-5.788    c1.24-1.15,0.939-1.823-0.141-2.744c-1.931-1.522-3.293-3.327-4.054-5.734c-1.965-6.213,4-13.24,10.406-11.913    c2,0.39,4.179,1.363,5.699,2.673c6.461,5.682,12.621,11.682,19.029,17.381c2.885,2.602,3.77,8.496,1.699,11.948    c-2.144,3.54-6.71,5.682-10.869,4.301c-1.894-0.637-3.593-2.071-5.222-3.328c-0.797-0.655-1.168-0.832-1.93,0.018    c-1.877,1.982-3.842,3.912-5.877,5.806c-0.832,0.832-0.832,1.328,0,2.266c4.338,4.655,8.797,9.222,12.727,14.231    c5.046,6.372,9.507,13.24,12.832,20.727c3.099,6.903,5.968,13.965,8.195,21.169c2.656,8.584,4.037,17.47,4.639,26.497    c0.603,9.08,0.177,18.037-1.026,26.993c-1.063,8.302-3.133,16.354-5.931,24.249c-3.256,9.187-7.45,17.877-12.653,26.09    c-6.213,9.735-13.594,18.532-22.197,26.231c-10.354,9.222-21.824,16.709-34.586,22.179c-6.992,2.956-14.143,5.362-21.541,7.114    c-12.107,2.832-24.373,3.931-36.71,3.188c-8.833-0.514-17.541-1.841-26.073-4.195c-12.301-3.434-23.966-8.39-34.71-15.311    c-13.151-8.496-24.567-18.886-33.967-31.542c-5.929-8-10.903-16.549-14.868-25.665c-3.221-7.311-5.575-14.938-7.327-22.764    c-2.089-9.346-3.151-18.797-3.08-28.354c0.089-11.895,1.806-23.612,5.08-35.064c2.902-10.125,7.009-19.7,12.302-28.692    c3.699-6.213,8.213-12.019,12.62-17.736c2.637-3.38,5.752-6.336,8.708-9.417c0.797-0.832,0.797-1.398,0-2.159    c-2.018-1.982-4-3.93-5.965-5.93c-0.673-0.69-1.133-0.655-1.752-0.053c-0.762,0.796-1.522,1.593-2.479,2.177    c-5.239,3.292-12.638,1.558-14.567-5.133c-0.991-3.31-0.53-6.727,2.071-9.257c4.248-4.089,8.69-8.018,13.08-11.965    c2.407-2.266,4.886-4.496,7.382-6.726c2.69-2.425,7.911-2.69,11.098-0.584c3.257,2.124,5.168,6.249,4.266,10.036    c-0.602,2.478-1.965,4.584-4.089,6.142c-1.327,0.938-1.504,1.77-0.142,3.009c2.159,1.876,4.142,3.947,6.106,6.018    c0.85,0.885,1.47,0.868,2.39,0.23c7.151-4.921,14.709-9.045,22.763-12.213c5.133-1.982,10.39-3.77,15.735-5.221    c5.274-1.416,10.691-2.301,16.072-3.363c1.026-0.212,2.105-0.159,3.133-0.212c0.974-0.053,1.469-0.496,1.469-1.522    c-0.035-4.178-0.035-8.319,0-12.479c0-1.062-0.442-1.363-1.469-1.434c-2.124-0.142-4.426-0.071-6.39-0.796    c-4.603-1.717-7.576-4.903-8.231-10.089c-0.726-5.452,1.01-9.717,5.505-12.673c1.594-1.08,3.718-1.858,5.646-1.929    c5.718-0.248,11.47-0.106,17.223-0.106C251,84.574,251,84.574,251,84.556z M250.593,363.122    c60.323,0.46,110.255-48.321,111.28-108.892c1.027-61.42-47.984-113.141-111.511-112.927    c-60.039,0.177-108.591,48.038-110.343,107.652C138.126,312.252,189.386,363.316,250.593,363.122z"></path>			<path fill="#014867" d="M316.65,246.142c0.266,7.771-0.443,15.452-2.902,22.851c-3.205,9.664-8.656,17.594-18.799,21.063    c-10.85,3.698-22.957,1.025-30.443-8.533c-4.266-5.469-6.514-11.733-7.807-18.461c-1.574-8.194-1.539-16.442-1.168-24.655    c0.318-8.124,1.682-16.107,5.559-23.47c4.105-7.646,10.213-12.974,18.797-14.603c10.867-2.071,20.195,1.115,27.328,9.824    c4.496,5.434,7.101,11.753,8.055,18.709c0.798,5.717,1.273,11.47,1.896,17.222C317.004,246.106,316.826,246.106,316.65,246.142z     M304.455,245.646c-0.373-4-0.531-8.036-1.115-12c-0.709-4.956-2.143-9.665-4.885-13.93c-4.568-7.133-13.576-9.398-20.107-5.08    c-5.135,3.417-7.684,8.532-8.957,14.355c-1.733,7.93-1.682,16.054-1.221,24.09c0.283,5.876,0.902,11.806,3.928,17.099    c3.188,5.646,7.789,9.522,14.533,9.15c6.406-0.283,10.762-4.194,13.346-9.895C303.393,261.93,304.33,253.877,304.455,245.646z"></path>			<path fill="#014867" d="M198.819,225.945c-1.398,0-2.814,0.036-4.23,0c-1.77-0.088-2.761-1.38-2.354-3.098    c1.682-6.744,4.549-12.779,10.071-17.204c3.947-3.187,8.461-5.098,13.559-5.522c7.168-0.549,13.806,0.885,19.683,5.186    c4.283,3.097,7.257,7.275,8.673,12.39c2.23,8.248,0.425,15.47-5.841,21.399c-1.009,0.956-1.292,1.292,0.159,2.354    c8.337,6.301,12.406,14.549,10.779,25.151c-1.734,10.957-7.594,18.904-17.983,22.904c-10.992,4.213-21.736,3.381-31.329-4    c-4.797-3.682-7.576-8.902-9.24-14.727c-0.442-1.575-0.85-3.151-1.256-4.727c-0.443-1.877,0.602-3.24,2.549-3.293    c2.336-0.018,4.673-0.018,7.009-0.018c2.177,0,2.797,0.654,3.487,2.673c0.813,2.354,1.628,4.761,2.974,6.851    c3.115,5.08,8.071,6.603,13.788,6.689c8.744,0.213,14.957-5.115,16.851-11.611c1.646-5.682-0.053-10.531-4.23-14.654    c-2.92-2.867-6.62-3.807-10.425-4.497c-2.23-0.354-4.55-0.46-6.815-0.708c-1.504-0.177-2.301-1.168-2.354-2.584    c-0.089-2.336-0.089-4.673,0-7.009c0.053-1.77,0.956-2.425,3.009-2.779c2.85-0.442,5.753-0.779,8.514-1.646    c3.239-1.062,5.859-3.08,7.239-6.425c1.098-2.602,0.797-5.133-0.389-7.594c-2.284-4.832-9.47-7.735-14.656-6.442    c-6.018,1.486-8.566,6.053-10.655,11.098c-0.549,1.31-1.222,1.876-2.549,1.858C201.51,225.893,200.183,225.945,198.819,225.945    L198.819,225.945z"></path>			<path fill="#014867" d="M254.734,344.254c0,1.594,0,3.133,0,4.708c-0.035,2.513-1.469,4.177-3.646,4.319    c-2.053,0.07-3.841-1.471-3.929-3.842c-0.142-3.594-0.124-7.239,0.018-10.851c0.088-2.194,1.965-3.646,3.983-3.541    c2.053,0.054,3.486,1.664,3.539,3.947C254.752,340.768,254.734,342.501,254.734,344.254L254.734,344.254z"></path>			<path fill="#014867" d="M254.734,160.473c0,1.628,0,3.292-0.035,4.903c0,2.354-1.434,4.036-3.574,4.16    c-1.983,0.088-3.86-1.346-3.948-3.576c-0.159-3.788-0.142-7.505,0.018-11.24c0.089-2.124,2.106-3.558,4.106-3.469    c1.877,0.124,3.346,1.788,3.398,3.965c0.053,1.717,0,3.505,0,5.257H254.734z"></path>			<path fill="#014867" d="M322.189,295.525c0-3.063,2.727-4.744,5.487-3.275c3.168,1.734,6.283,3.559,9.398,5.346    c1.895,1.15,2.406,3.451,1.221,5.328c-1.08,1.717-3.381,2.159-5.186,1.115c-2.902-1.734-5.859-3.398-8.779-5.027    C322.951,298.215,322.066,297.171,322.189,295.525z"></path>			<path fill="#014867" d="M202.235,164.313c1.435,0.142,2.603,0.531,3.363,2.018c1.734,3.204,3.664,6.337,5.416,9.541    c0.938,1.788,0.213,3.929-1.451,4.797c-1.841,0.956-3.965,0.46-4.974-1.31c-1.858-3.098-3.593-6.266-5.416-9.363    C197.51,167.198,199.828,164.172,202.235,164.313z"></path>			<path fill="#014867" d="M290.4,176.987c0.442-0.938,0.975-2.284,1.646-3.522c1.272-2.266,2.638-4.514,3.931-6.779    c1.203-2.124,3.434-2.903,5.629-1.912c1.326,0.584,2.229,2.903,1.416,4.407c-1.896,3.593-3.912,7.169-6.072,10.603    c-0.832,1.31-2.371,1.682-4.053,1.098C291.127,180.332,290.613,179.058,290.4,176.987z"></path>			<path fill="#014867" d="M321.801,208.652c0.707-0.991,1.238-2.248,2.178-2.85c2.955-1.912,6.089-3.629,9.257-5.31    c2.018-1.08,4.266-0.443,5.274,1.398c0.99,1.806,0.406,3.771-1.664,5.045c-3.045,1.823-6.088,3.646-9.221,5.31    C324.969,213.697,322.172,211.892,321.801,208.652z"></path>			<path fill="#014867" d="M294.1,323.332c1.594-0.07,2.709,0.938,3.486,2.195c1.824,3.062,3.576,6.158,5.258,9.291    c0.938,1.789,0.318,3.789-1.311,4.869c-1.416,0.938-3.717,0.602-4.867-0.938c-0.99-1.362-1.805-2.851-2.672-4.284    c-0.992-1.734-2-3.416-2.939-5.203C289.551,326.465,291.127,323.35,294.1,323.332z"></path>			<path fill="#014867" d="M167.048,304.534c-1.965,0.036-3.575-1.062-3.947-2.62c-0.46-1.628,0.018-3.115,1.434-3.965    c3.15-2.053,6.426-3.946,9.771-5.787c1.575-0.885,4.036-0.143,4.991,1.327c0.921,1.47,0.425,4.142-1.186,5.134    c-3.222,2-6.549,3.84-9.841,5.717C167.845,304.57,167.26,304.518,167.048,304.534z"></path>			<path fill="#014867" d="M202.413,340.395c-2.868-0.283-4.673-2.797-3.452-5.237c1.771-3.507,3.771-6.923,5.877-10.284    c1.026-1.699,3.062-1.965,4.761-0.975c1.611,0.955,2.354,2.851,1.505,4.515c-1.894,3.521-3.858,7.026-5.965,10.442    C204.643,339.634,203.333,339.917,202.413,340.395z"></path>			<path fill="#014867" d="M167.189,200.05c0.407,0.142,1.327,0.336,2.124,0.779c2.797,1.558,5.558,3.168,8.283,4.761    c1.947,1.186,2.727,3.682,1.771,5.416c-1.026,1.752-3.31,2.266-5.416,1.08c-2.938-1.664-5.895-3.327-8.779-5.062    c-2.178-1.274-2.655-3.009-1.771-5.151C164.039,200.28,165.277,200.103,167.189,200.05z"></path>			<path fill="#014867" d="M342.846,255.912c-1.77,0-3.592,0.07-5.416,0c-2.248-0.071-3.77-1.646-3.805-3.753    c-0.072-1.752,1.469-3.469,3.592-3.522c3.808-0.106,7.594-0.106,11.4-0.036c1.893,0.053,3.451,1.982,3.397,3.823    c-0.055,1.717-1.646,3.346-3.541,3.436c-1.84,0.07-3.733,0-5.629,0C342.846,255.895,342.846,255.912,342.846,255.912z"></path>			<path fill="#014867" d="M158.959,255.859c-1.93,0-3.858,0.053-5.753-0.055c-1.894-0.054-3.168-1.558-3.203-3.47    c-0.071-1.823,1.15-3.522,2.92-3.593c4.106-0.124,8.195-0.124,12.284,0c1.734,0.036,3.133,1.947,3.08,3.682    c-0.054,1.699-1.575,3.274-3.346,3.436c-0.142,0.018-0.266,0.035-0.354,0.035c-1.877,0-3.735,0-5.629,0    C158.959,255.877,158.959,255.859,158.959,255.859z"></path>			<path fill="#014867" d="M247.336,313.969c0.354-1.982,0.761-3.982,0.92-6c0.054-1.045-0.035-2.318-0.602-3.063    c-1.168-1.629-4.018-0.584-4.708,1.717c-0.655,2.053-0.885,4.195-1.239,6.318c-0.159,0.886-0.354,1.806-1.434,1.363    c-0.372-0.143-0.566-1.15-0.514-1.734c0.089-1.771,0.372-3.506,0.638-5.223c0.194-1.47,0.07-2.886-1.575-3.238    c-1.47-0.318-2.938,0.371-3.434,1.806c-0.69,1.929-0.938,4.054-1.452,6.089c-0.212,0.92,0.514,2.637-1.416,2.336    c-1.593-0.283-0.672-1.77-0.584-2.619c0.266-2.744,0.797-5.434,1.098-8.143c0.142-1.044,0.584-1.292,1.505-1.221    c0.726,0.088,1.504,0.177,2.194-0.019c1.858-0.584,3.398-0.442,4.814,0.99c0.283,0.248,1.098,0,1.61-0.142    c1.045-0.371,1.965-1.01,3.027-1.149c2.442-0.319,4.407,1.752,4.23,4.371c-0.124,2.159-0.425,4.302-0.708,6.442    C249.46,314.411,248.982,314.605,247.336,313.969z"></path>			<path fill="#014867" d="M270.08,308.216c-0.158,1.274-0.389,3.327-0.76,5.31c-0.072,0.392-0.744,0.675-1.098,0.992    c-0.302-0.39-0.902-0.832-0.867-1.203c0.141-1.982,0.424-3.965,0.688-5.947c0.194-1.61-0.176-2.903-1.912-3.416    c-1.149-0.301-3.272,0.777-3.664,2.124c-0.637,2.282-0.973,4.655-1.485,6.974c-0.142,0.531-0.566,1.01-0.885,1.506    c-0.39-0.426-1.168-0.921-1.134-1.312c0.302-3.362,0.763-6.726,1.328-10.054c0.035-0.371,1.099-0.584,1.733-0.744    c0.603-0.104,1.291,0.16,1.822,0C268.152,301.152,270.436,302.959,270.08,308.216z"></path>			<path fill="#014867" d="M256.559,302.534c-0.408,3.505-0.813,6.868-1.223,10.229c-0.035,0.338-0.018,0.762-0.229,0.991    c-0.355,0.372-0.867,0.673-1.347,0.728c-0.159,0.035-0.653-0.728-0.618-1.08c0.354-3.204,0.85-6.338,1.186-9.56    C254.523,302.357,255.213,302.109,256.559,302.534z"></path>			<path fill="#014867" d="M255.957,301.029c-0.639-0.955-1.311-1.557-1.258-2c0.09-0.531,0.832-0.991,1.258-1.486    c0.494,0.514,1.291,0.955,1.469,1.575C257.531,299.454,256.699,300.074,255.957,301.029z"></path>		</g>	</g></g></svg>